<?xml version="1.0" encoding="UTF-8" standalone="no"?>
<!-- Created with Inkscape (http://www.inkscape.org/) -->

<svg
   width="76mm"
   height="19.561678mm"
   viewBox="0 0 76 19.561678"
   version="1.1"
   id="svg13074"
   sodipodi:docname="HRF_LOGO_ENTWURF.svg"
   inkscape:version="1.1.2 (b8e25be833, 2022-02-05)"
   xmlns:inkscape="http://www.inkscape.org/namespaces/inkscape"
   xmlns:sodipodi="http://sodipodi.sourceforge.net/DTD/sodipodi-0.dtd"
   xmlns="http://www.w3.org/2000/svg"
   xmlns:svg="http://www.w3.org/2000/svg">
  <sodipodi:namedview
     id="namedview13076"
     pagecolor="#ffffff"
     bordercolor="#666666"
     borderopacity="1.0"
     inkscape:pageshadow="2"
     inkscape:pageopacity="0.0"
     inkscape:pagecheckerboard="0"
     inkscape:document-units="mm"
     showgrid="false"
     inkscape:zoom="0.7198092"
     inkscape:cx="124.3385"
     inkscape:cy="546.67264"
     inkscape:window-width="2400"
     inkscape:window-height="1271"
     inkscape:window-x="2391"
     inkscape:window-y="-240"
     inkscape:window-maximized="1"
     inkscape:current-layer="layer1"
     fit-margin-top="0"
     fit-margin-left="0"
     fit-margin-right="0"
     fit-margin-bottom="0"
     lock-margins="true" />
  <defs
     id="defs13071">
    <clipPath
       id="clip1_18_2">
      <rect
         width="63"
         height="66"
         fill="#ffffff"
         id="rect1095"
         x="0"
         y="0" />
    </clipPath>
  </defs>
  <g
     inkscape:label="Ebene 1"
     inkscape:groupmode="layer"
     id="layer1"
     transform="translate(-4.6386124,-3.819409)">
    <g
       clip-path="url(#clip1_18_2)"
       id="g832"
       transform="matrix(0.29693982,0,0,0.29693982,4.6203255,3.8012308)"
       style="fill:none">
      <path
         d="m 31.5,64.9291 c 0,0 -10.346,-5.2017 -18.3827,-16.7678 C 5.08064,36.5953 3.29472,27.3241 2.37097,21.7858 1.47801,16.217 1.04692,6.70096 1.04692,1.07092 H 31.5308 62.0147 c 0,5.63004 -0.4619,15.14608 -1.3549,20.71488 C 59.7669,27.3546 57.9502,36.5953 49.9135,48.1613 41.846,59.7274 31.5,64.9291 31.5,64.9291 Z"
         fill="#ffffff"
         id="path826" />
      <path
         d="M 31.5,1.83591 26.7889,14.8095 22.1701,2.20308 17.2434,15.0849 12.4707,2.81504 H 2.92522 V 12.1169 L 15.0572,17.1961 2.77126,23.6523 15.7038,25.886 5.6349,33.4131 l 13.3944,0.3978 -9.022,9.0876 12.7478,-1.6523 -7.3592,9.6996 13.8563,-3.6106 -5.4501,9.6996 7.6979,5.6912 7.6979,-5.6912 -5.4501,-9.6996 13.8563,3.6106 -7.3592,-9.6996 12.7478,1.6523 -9.022,-9.0876 L 57.3651,33.4131 47.2962,25.886 60.2287,23.6523 47.9428,17.1961 60.0748,12.1169 V 2.81504 H 50.5293 L 45.7566,15.0849 40.8607,2.20308 36.2111,14.8401 Z m 0,64.10289 c 0,0 -10.6848,-5.3852 -18.9677,-17.2879 C 4.24927,36.7177 2.37097,27.1711 1.44721,21.4187 0.523461,15.6968 0.0615845,5.87485 0.0615845,0.0612183 H 31.5 62.9384 C 62.9384,5.87485 62.4765,15.6968 61.5528,21.4187 60.629,27.1405 58.7815,36.7177 50.4677,48.6509 42.1847,60.5536 31.5,65.9388 31.5,65.9388 Z"
         fill="#ef0019"
         id="path828" />
      <path
         d="m 36.2419,26.7427 v -2.0195 c 0.8622,-0.1835 1.8475,-0.4895 2.6173,-0.7343 v -3.0904 h 1.6012 v 2.4478 c 2.6789,-1.2545 4.3416,-3.0904 4.3416,-5.1098 h 2.0631 c 0.0308,0.4283 0.0308,0.7649 0.0308,1.1933 0,9.3018 -6.7434,16.9513 -15.3959,16.9819 -8.5601,-0.0612 -15.3959,-7.6801 -15.3959,-16.9819 0,-0.4284 0,-0.765 0.0308,-1.1933 h 2.063 c 0,2.0194 1.6936,3.8247 4.3417,5.1098 v -2.4478 h 1.6012 v 3.0904 c 0.7698,0.2754 1.7551,0.5813 2.6173,0.7343 v 2.0195 C 25.5264,26.4673 24.2023,26.039 23.1554,25.58 c 0,0 -0.4619,-0.1836 -0.6774,-0.306 -0.3695,-0.1836 -0.739,-0.3672 -1.0777,-0.5814 -2.7713,-1.5605 -4.0029,-3.1822 -4.1261,-3.3045 0.893,7.7413 6.9281,13.7997 14.2258,13.7997 7.4208,0 13.3328,-6.0584 14.2258,-13.7997 -0.1232,0.1223 -1.3548,1.744 -4.1261,3.3045 -0.3387,0.2142 -0.7082,0.3978 -1.0777,0.5814 -0.2155,0.1224 -0.4619,0.2142 -0.6774,0.3366 0,0.0306 -2.371,0.8873 -3.6027,1.1321 z m 4.0953,-0.2142 c 1.4165,-0.6731 2.9868,-1.6829 3.9722,-2.6314 -0.3387,0.9791 -0.893,2.5702 -1.4164,3.427 -0.739,0.5201 -1.6936,1.1321 -2.5558,1.5605 z m -8.1906,4.1614 c 2.3402,-0.0918 4.8959,-0.612 6.8974,-1.3464 v -2.356 c -1.9707,0.7037 -4.4956,1.2239 -6.8666,1.3157 z m 4.0953,0.5507 c 1.7552,-0.4589 3.695,-0.9485 5.1423,-1.8665 -1.3549,1.5299 -3.2948,3.0904 -5.1423,3.886 z m -1.324,-4.2837 c -1.0469,0.153 -2.2786,0.2142 -3.3871,0.2142 -1.1393,0 -2.371,-0.0918 -3.4487,-0.2142 v -2.0501 c 1.0469,0.153 2.3094,0.2142 3.4487,0.2142 1.1393,0 2.3402,-0.0612 3.3871,-0.2142 z M 22.6935,26.5285 c -1.4164,-0.6731 -2.9868,-1.6829 -3.9721,-2.6314 0.3387,0.9791 0.893,2.5702 1.4164,3.427 0.739,0.5201 1.6936,1.1321 2.5557,1.5605 z m 8.1907,4.1614 c -2.3402,-0.0918 -4.8959,-0.612 -6.8974,-1.3464 v -2.356 c 1.9707,0.7037 4.4956,1.2239 6.8666,1.3157 z m 4.0645,0.8261 c -1.0777,0.1836 -2.3402,0.2754 -3.4795,0.2754 0,0 -2.3402,-0.0918 -3.4179,-0.2754 v 2.2031 c 1.0469,0.2753 2.3094,0.4283 3.4487,0.4283 0.9853,0 2.3402,-0.153 3.4179,-0.4283 z m -8.1598,-0.2754 c -1.7552,-0.4589 -3.6951,-0.9485 -5.1423,-1.8665 1.3549,1.5299 3.2947,3.0904 5.1423,3.886 z"
         fill="#262e2c"
         id="path830" />
    </g>
    <g
       aria-label="HG REGION"
       transform="matrix(0.27307164,0,0,0.27307164,-26.371463,-70.327017)"
       id="text6526"
       style="font-size:24px;line-height:1.25;white-space:pre;shape-inside:url(#rect6528);fill:#ffffff">
      <path
         d="m 206.43359,294.47958 h -3.51562 v -7.3125 h -6.85547 v 7.3125 h -3.51563 v -17.0625 h 3.51563 v 6.91407 h 6.85547 v -6.91407 h 3.51562 z"
         style="font-weight:bold;font-family:Roboto;-inkscape-font-specification:'Roboto Bold';fill:#ffffff"
         id="path11122" />
      <path
         d="m 223.00391,292.32333 q -0.94922,1.13672 -2.6836,1.76953 -1.73437,0.6211 -3.84375,0.6211 -2.21484,0 -3.89062,-0.96094 -1.66407,-0.97266 -2.57813,-2.8125 -0.90234,-1.83984 -0.92578,-4.32422 v -1.16015 q 0,-2.55469 0.85547,-4.41797 0.86719,-1.875 2.48437,-2.85938 1.62891,-0.99609 3.8086,-0.99609 3.03515,0 4.74609,1.45312 1.71094,1.44141 2.02735,4.20703 h -3.42188 q -0.23437,-1.46484 -1.04297,-2.14453 -0.79687,-0.67968 -2.20312,-0.67968 -1.79297,0 -2.73047,1.34765 -0.9375,1.34766 -0.94922,4.00781 v 1.08985 q 0,2.68359 1.01953,4.05469 1.01953,1.37109 2.98828,1.37109 1.98047,0 2.82422,-0.84375 v -2.94141 h -3.19922 v -2.58984 h 6.71485 z"
         style="font-weight:bold;font-family:Roboto;-inkscape-font-specification:'Roboto Bold';fill:#ffffff"
         id="path11124" />
      <path
         d="m 238.14453,288.23349 h -2.80078 v 6.24609 h -3.51563 v -17.0625 h 6.33985 q 3.02344,0 4.66406,1.34766 1.64063,1.34766 1.64063,3.80859 0,1.7461 -0.76172,2.91797 -0.75,1.16016 -2.28516,1.85156 l 3.69141,6.97266 v 0.16406 h -3.77344 z m -2.80078,-2.84766 h 2.83594 q 1.32422,0 2.05078,-0.66797 0.72656,-0.67968 0.72656,-1.86328 0,-1.20703 -0.69141,-1.89843 -0.67968,-0.69141 -2.09765,-0.69141 h -2.82422 z"
         style="font-weight:bold;font-family:Roboto;-inkscape-font-specification:'Roboto Bold';fill:#ffffff"
         id="path11126" />
      <path
         d="m 257.41016,287.08505 h -6.75 v 4.57031 h 7.92187 v 2.82422 h -11.4375 v -17.0625 h 11.41406 v 2.84766 h -7.89843 v 4.06641 h 6.75 z"
         style="font-weight:bold;font-family:Roboto;-inkscape-font-specification:'Roboto Bold';fill:#ffffff"
         id="path11128" />
      <path
         d="m 274.14453,292.32333 q -0.94922,1.13672 -2.68359,1.76953 -1.73438,0.6211 -3.84375,0.6211 -2.21485,0 -3.89063,-0.96094 -1.66406,-0.97266 -2.57812,-2.8125 -0.90235,-1.83984 -0.92578,-4.32422 v -1.16015 q 0,-2.55469 0.85546,-4.41797 0.86719,-1.875 2.48438,-2.85938 1.62891,-0.99609 3.80859,-0.99609 3.03516,0 4.7461,1.45312 1.71093,1.44141 2.02734,4.20703 h -3.42187 q -0.23438,-1.46484 -1.04297,-2.14453 -0.79688,-0.67968 -2.20313,-0.67968 -1.79297,0 -2.73047,1.34765 -0.9375,1.34766 -0.94922,4.00781 v 1.08985 q 0,2.68359 1.01954,4.05469 1.01953,1.37109 2.98828,1.37109 1.98047,0 2.82422,-0.84375 v -2.94141 h -3.19922 v -2.58984 h 6.71484 z"
         style="font-weight:bold;font-family:Roboto;-inkscape-font-specification:'Roboto Bold';fill:#ffffff"
         id="path11130" />
      <path
         d="m 280.73047,294.47958 h -3.51563 v -17.0625 h 3.51563 z"
         style="font-weight:bold;font-family:Roboto;-inkscape-font-specification:'Roboto Bold';fill:#ffffff"
         id="path11132" />
      <path
         d="m 298.00391,286.33505 q 0,2.51953 -0.89063,4.41797 -0.89062,1.89844 -2.55469,2.92969 -1.65234,1.03125 -3.79687,1.03125 -2.1211,0 -3.78516,-1.01953 -1.66406,-1.01953 -2.57812,-2.90625 -0.91407,-1.89844 -0.92578,-4.35938 v -0.84375 q 0,-2.51953 0.90234,-4.42969 0.91406,-1.92187 2.56641,-2.9414 1.66406,-1.03125 3.79687,-1.03125 2.13281,0 3.78516,1.03125 1.66406,1.01953 2.5664,2.9414 0.91407,1.91016 0.91407,4.41797 z m -3.5625,-0.77344 q 0,-2.68359 -0.96094,-4.07812 -0.96094,-1.39453 -2.74219,-1.39453 -1.76953,0 -2.73047,1.38281 -0.96094,1.37109 -0.97265,4.03125 v 0.83203 q 0,2.61328 0.96093,4.05469 0.96094,1.44141 2.76563,1.44141 1.76953,0 2.71875,-1.38282 0.94922,-1.39453 0.96094,-4.05468 z"
         style="font-weight:bold;font-family:Roboto;-inkscape-font-specification:'Roboto Bold';fill:#ffffff"
         id="path11134" />
      <path
         d="m 314.43359,294.47958 h -3.51562 l -6.84375,-11.22656 v 11.22656 h -3.51563 v -17.0625 h 3.51563 l 6.85547,11.25 v -11.25 h 3.5039 z"
         style="font-weight:bold;font-family:Roboto;-inkscape-font-specification:'Roboto Bold';fill:#ffffff"
         id="path11136" />
    </g>
    <g
       aria-label="FÖRDE"
       transform="matrix(0.43942514,0,0,0.43942514,-58.682029,-108.53865)"
       id="text6526-3"
       style="font-size:24px;line-height:1.25;white-space:pre;shape-inside:url(#rect6528-1);fill:#ffffff">
      <path
         d="m 196.75944,294.47958 h -3.576 v -17.136 h 9.816 v 2.976 h -6.24 v 4.416 h 5.808 v 2.976 h -5.808 z"
         style="font-weight:bold;-inkscape-font-specification:'sans-serif Bold';fill:#ffffff"
         id="path11139" />
      <path
         d="m 221.91143,285.88758 q 0,2.664 -0.888,4.656 -0.864,1.968 -2.688,3.072 -1.8,1.104 -4.584,1.104 -2.784,0 -4.608,-1.104 -1.8,-1.104 -2.688,-3.096 -0.864,-1.992 -0.864,-4.656 0,-2.664 0.864,-4.632 0.888,-1.968 2.688,-3.048 1.824,-1.104 4.632,-1.104 2.784,0 4.584,1.104 1.8,1.08 2.664,3.072 0.888,1.968 0.888,4.632 z m -12.504,0 q 0,2.688 1.032,4.248 1.032,1.536 3.312,1.536 2.328,0 3.336,-1.536 1.008,-1.56 1.008,-4.248 0,-2.688 -1.008,-4.224 -1.008,-1.56 -3.312,-1.56 -2.304,0 -3.336,1.56 -1.032,1.536 -1.032,4.224 z m 0.312,-11.904 q 0,-0.816 0.48,-1.2 0.48,-0.384 1.152,-0.384 0.672,0 1.152,0.384 0.504,0.384 0.504,1.2 0,0.792 -0.504,1.176 -0.48,0.384 -1.152,0.384 -0.672,0 -1.152,-0.384 -0.48,-0.384 -0.48,-1.176 z m 4.728,0 q 0,-0.816 0.48,-1.2 0.48,-0.384 1.176,-0.384 0.672,0 1.152,0.384 0.504,0.384 0.504,1.2 0,0.792 -0.504,1.176 -0.48,0.384 -1.152,0.384 -0.696,0 -1.176,-0.384 -0.48,-0.384 -0.48,-1.176 z"
         style="font-weight:bold;-inkscape-font-specification:'sans-serif Bold';fill:#ffffff"
         id="path11141" />
      <path
         d="m 230.45542,277.34358 q 3.504,0 5.16,1.272 1.68,1.272 1.68,3.864 0,1.176 -0.456,2.064 -0.432,0.864 -1.176,1.488 -0.72,0.6 -1.56,0.984 l 5.04,7.464 h -4.032 l -4.08,-6.576 h -1.944 v 6.576 h -3.624 v -17.136 z m -0.264,2.976 h -1.104 v 4.632 h 1.176 q 1.8,0 2.568,-0.6 0.792,-0.6 0.792,-1.776 0,-1.224 -0.84,-1.728 -0.84,-0.528 -2.592,-0.528 z"
         style="font-weight:bold;-inkscape-font-specification:'sans-serif Bold';fill:#ffffff"
         id="path11143" />
      <path
         d="m 255.51142,285.74358 q 0,4.344 -2.472,6.552 -2.472,2.184 -6.888,2.184 h -4.848 v -17.136 h 5.376 q 2.688,0 4.656,0.96 1.992,0.96 3.072,2.832 1.104,1.872 1.104,4.608 z m -3.768,0.096 q 0,-2.832 -1.248,-4.176 -1.248,-1.344 -3.624,-1.344 h -1.944 v 11.16 h 1.56 q 5.256,0 5.256,-5.64 z"
         style="font-weight:bold;-inkscape-font-specification:'sans-serif Bold';fill:#ffffff"
         id="path11145" />
      <path
         d="m 268.92741,294.47958 h -9.864 v -17.136 h 9.864 v 2.976 h -6.24 v 3.768 h 5.808 v 2.976 h -5.808 v 4.416 h 6.24 z"
         style="font-weight:bold;-inkscape-font-specification:'sans-serif Bold';fill:#ffffff"
         id="path11147" />
    </g>
    <g
       id="g10941"
       transform="matrix(0.10157265,0,0,0.10157265,62.811704,3.9840008)">
      <g
         id="Base">
        <path
           fill="#0047ab"
           d="m 138.104,105.916 c -13.684,0 -13.684,6 -27.368,6 -13.683,0 -13.683,-6 -27.366,-6 -13.682,0 -13.682,6 -27.364,6 -13.682,0 -13.682,-6 -27.363,-6 -13.507,0 -13.688,5.845 -26.857,5.993 2.453,18.073 15.784,75.965 85.965,76.338 71.537,-0.381 84.006,-60.521 86.095,-77.339 -2.188,0.601 -4.816,1.008 -8.374,1.008 -13.684,0 -13.684,-6 -27.368,-6 z"
           id="path10540" />
        <path
           fill="#ed1c24"
           d="m 56.005,98.916 c 13.683,0 13.683,-6 27.364,-6 13.684,0 13.684,6 27.366,6 13.685,0 13.685,-6 27.368,-6 13.683,0 13.684,6 27.367,6 3.748,0 6.467,-0.452 8.724,-1.105 L 173.584,1.25 H 1.917 L 1.298,98.916 c 13.664,-0.005 13.67,-6 27.344,-6 13.682,0 13.682,6 27.363,6 z"
           id="path10542" />
      </g>
      <g
         id="Silberner_Fisch">
        <path
           fill="#ffffff"
           stroke="#000000"
           stroke-width="0.6"
           d="m 70.104,133.958 -0.375,-1.375 c 0,0 0.563,-2.875 3.125,-4.125 1.563,-0.125 0.938,-0.063 1,0.438 0.062,0.501 0.438,-1.75 2.5,-0.313 0.75,-0.5 1.875,-1.313 2.438,-0.125 0.688,-0.25 1.813,-1.063 2.5,0 0.938,-0.438 1.563,-0.625 2.063,0.313 1.188,-0.5 2.375,-1.188 2.875,0.125 1.125,-0.313 2.5,-0.063 2.563,0.438 0.813,0 1.938,0 2.188,0.5 0.938,0.188 1.563,0.313 1.688,0.688 0.625,0.125 1.875,0.25 2,0.875 0.875,0.25 1.813,0.438 2,0.875 0.938,0.125 1.875,0.188 2.313,0.75 0.813,0.25 1.938,0.688 2,1.063 0.813,0.125 2.188,0.313 1.188,1.25 -0.75,0.688 -1.688,1.375 -1.688,1.375 l -1.25,1.313 z"
           id="path10545" />
        <path
           fill="#ffffff"
           stroke="#000000"
           stroke-width="0.6"
           d="m 70.25,161.208 c 0,0 1.667,7.416 6.208,8.833 0.208,-0.75 0.417,-2.125 0.417,-2.125 0,0 2.25,1.708 4.375,1.625 0.167,-1 0.208,-4.083 0.208,-4.083 0,0 -3.167,0.374 -5.792,-4.042 -2.583,-0.125 -5.416,-0.208 -5.416,-0.208 z"
           id="path10547" />
        <path
           fill="#ffffff"
           stroke="#000000"
           stroke-width="0.6"
           d="m 103.708,157.708 c 0,0 7.249,3.751 12.541,1.917 1.834,-0.625 5.168,-2.084 1.334,-3.584 -1.042,-0.5 -2.041,-1.125 -2.375,-1.458 -0.334,-0.333 -11.5,3.125 -11.5,3.125 z"
           id="path10549" />
        <path
           fill="#ffffff"
           stroke="#000000"
           d="m 35.292,144.708 c 0,0 30.625,-20.875 63.875,-8.125 7.125,2.125 15.375,3.625 19,4.25 4.5,0.25 8.75,0.375 13.75,-1.875 3,-1 6.625,-1.875 8,-1.875 1.25,0.375 4.375,0.25 1.625,3.75 -1.375,2.125 -3.875,5.625 -0.5,10 1.25,2.375 2,4.375 0.25,5.125 -1.625,0.5 -4.5,-0.375 -6.875,-1 -2.375,-1.375 -10.5,-4 -14.25,-2 -1.625,0.5 -36.75,13.375 -65.5,5.875 -4.375,0.75 -14.25,-0.5 -18.375,-4.375 0,0 -1.375,-1 -0.75,-1.875 0.75,-0.5 1.375,-0.5 2,0.125 0.75,0.625 4.25,2.25 1.625,-1.5 0,0 -3.625,-2.625 -4.375,-3.125 -0.75,-0.5 -1.625,-1.375 -0.75,-2.125 0.625,-0.5 1.25,-0.5 1.25,-0.5 z"
           id="path10551" />
        <path
           fill="none"
           stroke="#000000"
           stroke-width="0.6"
           d="m 49.5,158.834 c 0,0 6.75,-3.001 7.083,-8.584"
           id="path10553" />
        <path
           fill="none"
           stroke="#000000"
           stroke-width="0.6"
           d="m 54.333,158.75 c 0,0 5.5,-3.249 5.083,-10.916"
           id="path10555" />
        <path
           fill="none"
           stroke="#000000"
           stroke-width="0.6"
           d="m 35.292,145.458 c 0,0 3.042,2.46 4.375,4.126"
           id="path10557" />
        <path
           fill="none"
           stroke="#000000"
           stroke-width="0.6"
           d="m 41,152.5 c 0,0 2,2.083 -1,2.75"
           id="path10559" />
        <ellipse
           cx="47.25"
           cy="145.084"
           rx="1.7079999"
           ry="1.5"
           id="ellipse10561" />
        <path
           fill="none"
           stroke="#000000"
           stroke-width="0.6"
           d="m 43.875,144.959 c 0,-0.485 0.119,-0.945 0.331,-1.355"
           id="path10563" />
        <path
           fill="none"
           stroke="#000000"
           stroke-width="0.6"
           d="m 44.206,143.604 c 0.542,-1.047 1.692,-1.77 3.023,-1.77 1.853,0 3.354,1.398 3.354,3.125 0,1.727 -1.501,3.125 -3.354,3.125 -0.825,0 -1.581,-0.277 -2.165,-0.737"
           id="path10565" />
        <path
           fill="none"
           stroke="#000000"
           stroke-width="0.6"
           d="m 66.042,148.541 c 0,0 9.583,-1.541 14.25,1.584 -0.792,1.166 -6.125,5.375 -14,2.083"
           id="path10567" />
        <path
           fill="none"
           stroke="#000000"
           stroke-width="0.6"
           d="m 73.667,153.375 c 0,0 -2.541,-1.125 -3.458,-1.292"
           id="path10569" />
        <path
           fill="none"
           stroke="#000000"
           stroke-width="0.6"
           d="m 76.625,152.5 c 0,0 -3.417,-1.376 -6.875,-1.834"
           id="path10571" />
        <path
           fill="none"
           stroke="#000000"
           stroke-width="0.6"
           d="m 78.958,151.25 c 0,0 -4,-1.791 -10.833,-1.625"
           id="path10573" />
        <path
           fill="none"
           stroke="#000000"
           stroke-width="0.6"
           d="m 55.958,136.334 c 0,0 4.25,0.709 1.167,3.125"
           id="path10575" />
        <path
           fill="none"
           stroke="#000000"
           stroke-width="0.6"
           d="m 59.125,141.375 c 0,0 3.292,1.293 0.292,2.834"
           id="path10577" />
        <path
           fill="none"
           stroke="#000000"
           stroke-width="0.6"
           d="m 59.708,135.334 c 0,0 3.708,0.875 1,2.75"
           id="path10579" />
        <path
           fill="none"
           stroke="#000000"
           stroke-width="0.6"
           d="m 61.792,139.584 c 0,0 5.042,0.625 1.5,3.458"
           id="path10581" />
        <path
           fill="none"
           stroke="#000000"
           stroke-width="0.6"
           d="m 64.208,144 c 0,0 4.875,0.125 1.125,3.292"
           id="path10583" />
        <path
           fill="none"
           stroke="#000000"
           stroke-width="0.6"
           d="m 63.125,134.875 c 0,0 3.875,1 0.5,3.542"
           id="path10585" />
        <path
           fill="none"
           stroke="#000000"
           stroke-width="0.6"
           d="m 66.792,139.084 c 0,0 4.667,1.791 0.583,3.291"
           id="path10587" />
        <path
           fill="none"
           stroke="#000000"
           stroke-width="0.6"
           d="m 68.208,143.959 c 0,0 5.375,0.958 0.958,3"
           id="path10589" />
        <path
           fill="none"
           stroke="#000000"
           stroke-width="0.6"
           d="m 67.583,134.042 c 0,0 3.459,1.375 0.292,3.375"
           id="path10591" />
        <path
           fill="none"
           stroke="#000000"
           stroke-width="0.6"
           d="m 71.958,133.667 c 0,0 4.375,1.751 -0.292,3.834"
           id="path10593" />
        <path
           fill="none"
           stroke="#000000"
           stroke-width="0.6"
           d="m 70.417,138.292 c 0,0 4.417,1.583 1.25,3.625"
           id="path10595" />
        <path
           fill="none"
           stroke="#000000"
           stroke-width="0.6"
           d="m 72.833,142.917 c 0,0 4.25,1.916 0.792,3.375"
           id="path10597" />
        <path
           fill="none"
           stroke="#000000"
           stroke-width="0.6"
           d="m 74.75,138.001 c 0,0 4.083,1.082 0.667,3.041"
           id="path10599" />
        <path
           fill="none"
           stroke="#000000"
           stroke-width="0.6"
           d="m 77.583,133.584 c 0,0 5.084,2.167 0.292,3.25"
           id="path10601" />
        <path
           fill="none"
           stroke="#000000"
           stroke-width="0.6"
           d="m 79.333,138.126 c 0,0 5.417,2.042 0.292,3"
           id="path10603" />
        <path
           fill="none"
           stroke="#000000"
           stroke-width="0.6"
           d="m 77.167,142.626 c 0,0 4.75,1.291 1.083,3.416"
           id="path10605" />
        <path
           fill="none"
           stroke="#000000"
           stroke-width="0.6"
           d="m 81.667,142.709 c 0,0 4.792,2.333 0.333,3.458"
           id="path10607" />
        <path
           fill="none"
           stroke="#000000"
           stroke-width="0.6"
           d="m 84.667,139.376 c 0,0 4.25,1.749 0.708,3.166"
           id="path10609" />
        <path
           fill="none"
           stroke="#000000"
           stroke-width="0.6"
           d="m 83.208,134.292 c 0,0 3.917,1.959 0,3.417"
           id="path10611" />
        <path
           fill="none"
           stroke="#000000"
           stroke-width="0.6"
           d="m 87.917,134.501 c 0,0 4.25,2.458 0.083,3.458"
           id="path10613" />
        <path
           fill="none"
           stroke="#000000"
           stroke-width="0.6"
           d="m 86.958,143.959 c 0,0 2.708,1.083 -0.583,2.125"
           id="path10615" />
        <path
           fill="none"
           stroke="#000000"
           stroke-width="0.6"
           d="m 90.208,143.917 c 0,0 3.333,0.708 0.083,2"
           id="path10617" />
        <path
           fill="none"
           stroke="#000000"
           stroke-width="0.6"
           d="m 88.708,139.417 c 0,0 4.458,1.416 0.75,3.375"
           id="path10619" />
        <path
           fill="none"
           stroke="#000000"
           stroke-width="0.6"
           d="m 93.083,136.084 c 0,0 2.625,1.501 -0.875,2.417"
           id="path10621" />
        <path
           fill="none"
           stroke="#000000"
           stroke-width="0.6"
           d="m 92.667,140.292 c 0,0 4.584,1.875 0.459,2.75"
           id="path10623" />
        <path
           fill="none"
           stroke="#000000"
           stroke-width="0.6"
           d="m 93.875,144.251 c 0,0 3.332,1.124 0.291,2.291"
           id="path10625" />
        <path
           fill="none"
           stroke="#000000"
           stroke-width="0.6"
           d="m 96.5,136.625 c 0,0 3.375,2.25 -0.417,2.75"
           id="path10627" />
        <path
           fill="none"
           stroke="#000000"
           stroke-width="0.6"
           d="m 96.5,140.75 c 0,0 3.5,1 0.375,2.792"
           id="path10629" />
        <path
           fill="none"
           stroke="#000000"
           stroke-width="0.6"
           d="m 97.667,144.459 c 0,0 2.376,0.917 -0.166,1.75"
           id="path10631" />
        <path
           fill="none"
           stroke="#000000"
           stroke-width="0.6"
           d="m 100.792,137.834 c 0,0 2.5,1.916 -0.625,2.333"
           id="path10633" />
        <path
           fill="none"
           stroke="#000000"
           stroke-width="0.6"
           d="m 100.417,141.417 c 0,0 3.375,1.583 0.5,2.375"
           id="path10635" />
        <path
           fill="none"
           stroke="#000000"
           stroke-width="0.6"
           d="m 101.083,144.792 c 0,0 1.958,1.126 0.333,1.917"
           id="path10637" />
        <path
           fill="none"
           stroke="#000000"
           stroke-width="0.6"
           d="m 104.125,138.667 c 0,0 2.541,1.291 0.041,2.083"
           id="path10639" />
        <path
           fill="none"
           stroke="#000000"
           stroke-width="0.6"
           d="m 104.083,142.375 c 0,0 2.833,1.208 0.25,2.375"
           id="path10641" />
        <path
           fill="none"
           stroke="#000000"
           stroke-width="0.6"
           d="m 104.958,145.792 c 0,0 0.708,0.708 0.333,1.083"
           id="path10643" />
        <path
           fill="none"
           stroke="#000000"
           stroke-width="0.6"
           d="m 107.76,139.552 c 0,0 2.5,1.625 0.063,2.25"
           id="path10645" />
        <path
           fill="none"
           stroke="#000000"
           stroke-width="0.6"
           d="m 107.385,143.052 c 0,0 3.156,1.469 0.125,2.781"
           id="path10647" />
        <path
           fill="none"
           stroke="#000000"
           stroke-width="0.6"
           d="m 111.292,140.833 c 0,0 2.688,1.969 -0.406,2.156"
           id="path10649" />
        <path
           fill="none"
           stroke="#000000"
           stroke-width="0.6"
           d="m 110.823,144.146 c 0,0 2.594,1.344 0.406,1.906"
           id="path10651" />
        <path
           fill="none"
           stroke="#000000"
           stroke-width="0.6"
           d="m 114.729,141.833 c 0,0 2.75,1.281 0.063,2.031"
           id="path10653" />
        <path
           fill="none"
           stroke="#000000"
           stroke-width="0.6"
           d="m 114.979,145.083 c 0,0 2.688,0.906 -0.25,1.5"
           id="path10655" />
        <path
           fill="none"
           stroke="#000000"
           stroke-width="0.6"
           d="m 117.917,141.989 c 0,0 1.75,1.781 0.063,2.094"
           id="path10657" />
        <path
           fill="none"
           stroke="#000000"
           stroke-width="0.6"
           d="m 118.542,144.927 c 0,0 1.656,0.5 0.125,1.563"
           id="path10659" />
        <path
           fill="none"
           stroke="#000000"
           stroke-width="0.6"
           d="m 120.542,142.146 c 0,0 1.75,0.781 0.406,1.875"
           id="path10661" />
        <path
           fill="none"
           stroke="#000000"
           stroke-width="0.6"
           d="m 121.573,144.864 c 0,0 0.781,0.469 0.625,1.156"
           id="path10663" />
        <path
           fill="none"
           stroke="#000000"
           stroke-width="0.6"
           d="m 123.604,142.364 c 0,0 1.844,0.875 0.281,1.719"
           id="path10665" />
        <path
           fill="none"
           stroke="#000000"
           stroke-width="0.6"
           d="m 73.854,128.896 c 0,0 -0.771,0.771 -0.979,1.146"
           id="path10667" />
        <path
           fill="none"
           stroke="#000000"
           stroke-width="0.6"
           d="m 76.354,128.583 c 0,0 -0.854,0.543 -1.063,1.251"
           id="path10669" />
        <path
           fill="none"
           stroke="#000000"
           stroke-width="0.6"
           d="m 78.792,128.458 c 0,0 -0.708,0.835 -1,1.501"
           id="path10671" />
        <path
           fill="none"
           stroke="#000000"
           stroke-width="0.6"
           d="m 81.167,128.292 c 0,0 -0.25,0.251 -0.667,1.042"
           id="path10673" />
        <path
           fill="none"
           stroke="#000000"
           stroke-width="0.6"
           d="m 83.333,128.959 c 0,0 -0.75,0.875 -0.917,1.25"
           id="path10675" />
        <path
           fill="none"
           stroke="#000000"
           stroke-width="0.6"
           d="m 86.229,128.896 c 0,0 -0.896,0.938 -1.313,1.188"
           id="path10677" />
        <path
           fill="none"
           stroke="#000000"
           stroke-width="0.6"
           d="m 88.792,129.333 c 0,0 -1.333,1.042 -1.542,1.584"
           id="path10679" />
        <path
           fill="none"
           stroke="#000000"
           stroke-width="0.6"
           d="m 90.792,129.875 c 0,0 -1.042,0.709 -1.542,1.167"
           id="path10681" />
        <path
           fill="none"
           stroke="#000000"
           stroke-width="0.6"
           d="m 92.875,130.625 c 0,0 -0.959,0.5 -1.042,1.125"
           id="path10683" />
        <path
           fill="none"
           stroke="#000000"
           stroke-width="0.6"
           d="m 94.667,131.396 c 0,0 -0.832,0.563 -0.916,1.229"
           id="path10685" />
        <path
           fill="none"
           stroke="#000000"
           stroke-width="0.6"
           d="m 96.708,132.417 c 0,0 -0.75,0.292 -0.875,0.667"
           id="path10687" />
        <path
           fill="none"
           stroke="#000000"
           stroke-width="0.6"
           d="m 98.833,133.042 c 0,0 -0.834,0.5 -0.917,0.75"
           id="path10689" />
        <path
           fill="none"
           stroke="#000000"
           stroke-width="0.6"
           d="m 100.979,134.083 c 0,0 -0.938,0.167 -1.188,0.584"
           id="path10691" />
        <path
           fill="none"
           stroke="#000000"
           stroke-width="0.6"
           d="m 142.375,139.375 c 0,0 -4.875,-1.125 -10.583,1.208"
           id="path10693" />
        <path
           fill="none"
           stroke="#000000"
           stroke-width="0.6"
           d="m 141.083,141.291 c 0,0 -4.416,-0.459 -6.125,0.25"
           id="path10695" />
        <path
           fill="none"
           stroke="#000000"
           stroke-width="0.6"
           d="m 140.083,143.166 c 0,0 -2.834,-0.208 -4.334,0.417"
           id="path10697" />
        <path
           fill="none"
           stroke="#000000"
           stroke-width="0.6"
           d="m 139.208,145.541 c 0,0 -2.584,-0.207 -3.084,-0.166"
           id="path10699" />
        <line
           fill="none"
           stroke="#000000"
           stroke-width="0.6"
           x1="139.33299"
           y1="147.83299"
           x2="136.95799"
           y2="147.20799"
           id="line10701" />
        <path
           fill="none"
           stroke="#000000"
           stroke-width="0.6"
           d="m 140.083,149.333 c 0,0 -1.792,0.251 -3.667,-0.958"
           id="path10703" />
        <path
           fill="none"
           stroke="#000000"
           stroke-width="0.6"
           d="m 141.375,151.708 c 0,0 -2.249,-0.249 -4.166,-1.208"
           id="path10705" />
        <path
           fill="none"
           stroke="#000000"
           stroke-width="0.6"
           d="m 141.958,153.25 c 0,0 -3.167,-0.168 -6.417,-1.334"
           id="path10707" />
        <path
           fill="none"
           stroke="#000000"
           stroke-width="0.6"
           d="m 142.292,154.583 c 0,0 -5.126,0.458 -9.792,-2.042"
           id="path10709" />
        <line
           fill="none"
           stroke="#000000"
           stroke-width="0.6"
           x1="72"
           y1="132.375"
           x2="72.375"
           y2="131.45799"
           id="line10711" />
        <line
           fill="none"
           stroke="#000000"
           stroke-width="0.6"
           x1="74.083"
           y1="132.375"
           x2="74.458"
           y2="131.45799"
           id="line10713" />
        <line
           fill="none"
           stroke="#000000"
           stroke-width="0.6"
           x1="76.292"
           y1="132.37399"
           x2="76.667"
           y2="131.457"
           id="line10715" />
        <line
           fill="none"
           stroke="#000000"
           stroke-width="0.6"
           x1="78.792"
           y1="132.5"
           x2="79.167"
           y2="131.58299"
           id="line10717" />
        <line
           fill="none"
           stroke="#000000"
           stroke-width="0.6"
           x1="80.958"
           y1="132.37399"
           x2="81.333"
           y2="131.457"
           id="line10719" />
        <line
           fill="none"
           stroke="#000000"
           stroke-width="0.6"
           x1="83.667"
           y1="132.70799"
           x2="84.042"
           y2="131.791"
           id="line10721" />
        <line
           fill="none"
           stroke="#000000"
           stroke-width="0.6"
           x1="85.792"
           y1="132.99899"
           x2="86.167"
           y2="132.082"
           id="line10723" />
        <line
           fill="none"
           stroke="#000000"
           stroke-width="0.6"
           x1="88.042"
           y1="133.24899"
           x2="88.417"
           y2="132.332"
           id="line10725" />
        <line
           fill="none"
           stroke="#000000"
           stroke-width="0.6"
           x1="90.75"
           y1="133.74899"
           x2="91.125"
           y2="132.832"
           id="line10727" />
        <line
           fill="none"
           stroke="#000000"
           stroke-width="0.6"
           x1="92.542"
           y1="134.291"
           x2="92.917"
           y2="133.37399"
           id="line10729" />
        <line
           fill="none"
           stroke="#000000"
           stroke-width="0.6"
           x1="94.792"
           y1="134.666"
           x2="95.167"
           y2="133.74899"
           id="line10731" />
        <line
           fill="none"
           stroke="#000000"
           stroke-width="0.6"
           x1="96.792"
           y1="135.45799"
           x2="97.167"
           y2="134.541"
           id="line10733" />
        <line
           fill="none"
           stroke="#000000"
           stroke-width="0.6"
           x1="98.917"
           y1="136.12399"
           x2="99.292"
           y2="135.207"
           id="line10735" />
        <path
           fill="none"
           stroke="#000000"
           stroke-width="0.6"
           d="m 76.875,167.916 c 0,0 -4.458,-2.042 -5.25,-6.625"
           id="path10737" />
        <path
           fill="none"
           stroke="#000000"
           stroke-width="0.6"
           d="m 81.5,166.958 c 0,0 -3.375,-1.333 -5.833,-3.208"
           id="path10739" />
        <path
           fill="none"
           stroke="#000000"
           stroke-width="0.6"
           d="m 81.292,168.25 c 0,0 -5.375,-1.833 -7.583,-5"
           id="path10741" />
        <path
           fill="none"
           stroke="#000000"
           stroke-width="0.6"
           d="m 76.667,169.083 c 0,0 -1.417,-0.75 -2.292,-1.75"
           id="path10743" />
        <path
           fill="none"
           stroke="#000000"
           stroke-width="0.6"
           d="m 116.375,155.625 c 0,0 -3.292,0.709 -5.125,0.375"
           id="path10745" />
        <path
           fill="none"
           stroke="#000000"
           stroke-width="0.6"
           d="m 118.083,156.125 c 0,0 -5.126,2.958 -10.459,0.333"
           id="path10747" />
        <path
           fill="none"
           stroke="#000000"
           stroke-width="0.6"
           d="m 119.333,157.333 c 0,0 -5.709,2.75 -13.417,-0.125"
           id="path10749" />
      </g>
      <g
         id="Silberner_Wellenbalken">
        <path
           fill="#ffffff"
           stroke="#000000"
           d="m 174.195,97.811 c -2.257,0.653 -4.976,1.105 -8.724,1.105 -13.684,0 -13.684,-6 -27.367,-6 -13.683,0 -13.684,6 -27.368,6 -13.683,0 -13.683,-6 -27.366,-6 -13.682,0 -13.682,6 -27.364,6 -13.682,0 -13.682,-6 -27.363,-6 -13.674,0 -13.681,5.995 -27.344,6 l -0.048,7.667 c 0,0 0.082,1.981 0.535,5.326 13.17,-0.148 13.35,-5.993 26.857,-5.993 13.681,0 13.681,6 27.363,6 13.682,0 13.682,-6 27.364,-6 13.684,0 13.684,6 27.366,6 13.685,0 13.685,-6 27.368,-6 13.683,0 13.684,6 27.367,6 3.558,0 6.186,-0.407 8.374,-1.008 0.34,-2.734 0.405,-4.325 0.405,-4.325 z"
           id="path10752" />
        <path
           fill="none"
           stroke="#000000"
           stroke-width="0.6"
           d="m 8.417,107.333 c 0,0 -5.438,0.938 -6.938,0.875"
           id="path10754" />
        <path
           fill="none"
           stroke="#000000"
           stroke-width="0.6"
           d="m 13.729,107.708 c 0,0 -7.688,1.938 -11.563,2.063"
           id="path10756" />
        <path
           fill="none"
           stroke="#000000"
           stroke-width="0.6"
           d="m 18.042,96.896 c 0,0 12.375,-3.75 21.938,-0.313"
           id="path10758" />
        <path
           fill="none"
           stroke="#000000"
           stroke-width="0.6"
           d="m 22.354,97.396 c 0,0 5.25,-2.125 12.625,-0.563"
           id="path10760" />
        <path
           fill="none"
           stroke="#000000"
           stroke-width="0.6"
           d="m 72.458,96.979 c 0,0 12.375,-3.75 21.938,-0.313"
           id="path10762" />
        <path
           fill="none"
           stroke="#000000"
           stroke-width="0.6"
           d="m 76.771,97.479 c 0,0 5.25,-2.125 12.625,-0.563"
           id="path10764" />
        <path
           fill="none"
           stroke="#000000"
           stroke-width="0.6"
           d="m 127.542,97.229 c 0,0 12.375,-3.75 21.938,-0.313"
           id="path10766" />
        <path
           fill="none"
           stroke="#000000"
           stroke-width="0.6"
           d="m 131.854,97.729 c 0,0 5.25,-2.125 12.625,-0.563"
           id="path10768" />
        <path
           fill="none"
           stroke="#000000"
           stroke-width="0.6"
           d="m 44.083,107.499 c 0,0 11.333,4.249 22.417,0.583"
           id="path10770" />
        <path
           fill="none"
           stroke="#000000"
           stroke-width="0.6"
           d="m 47.667,106.832 c 0,0 3.917,2.251 13.5,0.834"
           id="path10772" />
        <path
           fill="none"
           stroke="#000000"
           stroke-width="0.6"
           d="m 99.458,107.687 c 0,0 11.334,4.249 22.417,0.583"
           id="path10774" />
        <path
           fill="none"
           stroke="#000000"
           stroke-width="0.6"
           d="m 103.042,107.02 c 0,0 3.917,2.251 13.5,0.834"
           id="path10776" />
        <path
           fill="none"
           stroke="#000000"
           stroke-width="0.6"
           d="m 154.833,108.417 c 0,0 7.25,2.416 18.833,1.083"
           id="path10778" />
        <path
           fill="none"
           stroke="#000000"
           stroke-width="0.6"
           d="m 159.75,107.5 c 0,0 7.418,1.417 14.084,-0.083"
           id="path10780" />
      </g>
      <g
         id="Silberne_holsteinisches_Nesselblatt">
        <polygon
           fill="#ffffff"
           stroke="#000000"
           points="87.167,57.708 100.667,65.083 93.667,53.458 108.167,57.708 98.917,47.083 112.917,46.083 99.917,40.208 114.167,35.083 100.167,31.583 117.417,22.458 117.292,12.958 107.542,13.208 99.167,28.958 94.292,14.083 89.542,29.083 85.167,14.292 80.792,29.083 76.042,14.083 71.167,28.958 62.792,13.208 53.042,12.958 52.917,22.458 70.167,31.583 56.167,35.083 70.417,40.208 57.417,46.083 71.417,47.083 62.167,57.708 76.667,53.458 69.667,65.083 83.167,57.708 78.792,76.208 85.167,81.758 91.542,76.208 "
           id="polygon10783" />
      </g>
      <g
         id="Silbernes_Eichenblatt">
        <path
           fill="#ffffff"
           stroke="#000000"
           d="m 24.042,76.833 c 0,0 1.125,-7.375 -3.875,-10 -1.875,-1.75 -3.375,-4.125 -0.75,-4.125 0.875,-0.25 4.5,-0.5 -0.75,-4.125 -2.625,-0.875 -7.25,-2.75 -8.25,-6.625 0.625,-1.625 1.625,-2.375 4.125,-1.625 1,-0.25 6.5,-0.375 -0.625,-5.875 -2.875,-2.625 -4.5,-2 -4.625,-8.625 0.625,-2.25 2,-3.5 4.875,-0.875 1.75,0.375 6.5,0.5 1.125,-4.5 -2,-2.375 -3.25,-2 -3.5,-7 0.5,-1.75 1.25,-3.625 4.125,-1.25 2.125,0.25 4.375,-0.25 3.125,-3.125 -0.625,-2.25 -2.375,-3.75 2.125,-5.75 2.375,-1 3.125,-2.5 4,-2.875 1.75,1.125 3.125,2 5.125,2.75 1.375,0.875 3.5,0.875 1.375,6.25 -0.25,1 -1.75,5.875 3,2.25 0,0 3.25,-2.542 3.667,1.375 0.333,1.75 -0.167,6.417 -2.75,7.667 -1.167,0.75 -3.417,1.584 -3,3.667 1,0.583 1.583,1.333 3.833,-0.25 1.083,-0.417 3.167,-1.917 4.417,1.667 0,1.833 1.083,5.667 -4.833,9.083 -0.833,1 -3.333,3 -2.917,5.5 C 34,50.917 34.583,51 36,50 c 0.917,-0.75 3.833,-2.083 3.833,1.583 -0.333,2 -1,3.417 -4.667,5.75 -2.583,0.917 -4.333,1.5 -4.75,2.75 C 30.333,61 29.25,63.416 32,62 c 0.75,0 2.333,-0.583 2.083,1.25 -0.167,0.833 -0.75,1.917 -2.583,2.75 -1.167,1 -5.417,3.083 -4.833,10.75 -0.083,1.167 0.083,2.667 -1,2.75 C 24.417,79.083 24,78.083 24.042,76.833 Z"
           id="path10786" />
        <path
           fill="none"
           stroke="#000000"
           stroke-width="0.6"
           d="m 24.229,70.083 c 0,0 0.5,-0.125 0.438,-2.125 -0.015,-0.499 -0.012,-3.748 10e-4,-8.379 0,-0.15 0.001,-0.297 0.001,-0.45 -0.256,-0.341 -0.627,-0.769 -1.019,-1.186 -0.541,-0.575 -1.098,-1.107 -1.359,-1.267 -0.563,-0.344 -3.219,-1.469 -3.781,-1.719 -0.562,-0.25 -1.563,-1.219 -2.281,-1.813 -0.5,-0.5 -0.031,-0.5 0.188,-0.563 0.125,0.281 1.563,1.375 2.563,1.875 1,0.5 3.375,1.563 4.531,2.156 0.349,0.179 0.76,0.398 1.165,0.617 0.007,-2.019 0.015,-4.226 0.024,-6.531 0.001,-0.222 0.002,-0.445 0.002,-0.668 -0.19,-0.496 -0.416,-0.974 -0.677,-1.428 -1.895,-3.299 -5.364,-5.477 -6.4,-6.312 -1.208,-0.75 -1.583,-1.833 -1.833,-2.417 -0.25,-0.458 0.417,-0.167 0.667,0.417 0.25,0.584 0.708,0.75 2.167,2.083 1.333,0.875 3.5,2.708 4.625,3.625 0.397,0.323 0.934,0.907 1.462,1.525 0.018,-4.26 0.038,-8.713 0.057,-12.863 v -0.116 c -0.259,-0.335 -0.502,-0.661 -0.691,-0.933 -0.121,-0.174 -0.222,-0.329 -0.287,-0.447 -0.458,-1.125 -1.875,-1.958 -3.917,-3.292 -1.042,-0.833 -2.333,-2.25 -2.792,-3.25 -0.208,-0.958 0.5,-0.5 0.708,-0.042 0.208,0.667 0.875,1.042 1.875,2.25 1,0.958 1.875,1.625 3.125,2.167 0.536,0.161 1.294,0.897 1.986,1.686 0.041,-8.774 0.076,-15.727 0.076,-15.727 0,0 0.313,-1.188 0.563,-0.063 0.022,0.31 0.075,6.792 0.135,15.042 0.47,-0.463 0.927,-0.83 1.284,-0.938 1.25,-0.542 2.125,-1.208 3.125,-2.167 1,-1.208 1.667,-1.583 1.875,-2.25 0.208,-0.458 0.916,-0.917 0.708,0.042 -0.458,1 -1.75,2.417 -2.792,3.25 -2.042,1.333 -3.458,2.167 -3.917,3.292 -0.063,0.113 -0.158,0.26 -0.272,0.426 v 0.039 c 0.004,0.638 0.009,1.284 0.014,1.937 0.025,3.618 0.051,7.433 0.076,11.128 0.266,-0.282 0.514,-0.525 0.724,-0.696 1.125,-0.917 3.292,-2.75 4.625,-3.625 1.458,-1.333 1.917,-1.5 2.167,-2.083 0.25,-0.583 0.917,-0.875 0.667,-0.417 -0.25,0.583 -0.625,1.667 -1.833,2.417 -1.024,0.826 -4.43,2.968 -6.337,6.208 l 0.001,0.184 c 0.019,2.878 0.037,5.642 0.053,8.137 0.137,-0.072 0.272,-0.143 0.397,-0.207 1.156,-0.594 3.531,-1.656 4.531,-2.156 1,-0.5 2.438,-1.594 2.563,-1.875 0.219,0.063 0.688,0.063 0.188,0.563 -0.719,0.594 -1.719,1.563 -2.281,1.813 -0.562,0.25 -3.219,1.375 -3.781,1.719 -0.261,0.16 -0.818,0.691 -1.359,1.267 l -0.248,0.268 c 0.038,5.787 0.063,9.809 0.063,9.809 0,0 -0.063,1.438 0.625,1.875"
           id="path10788" />
      </g>
      <g
         id="Silberne_Ähre">
        <path
           fill="#ffffff"
           stroke="#000000"
           d="m 150.022,57.333 c -0.125,-3.375 -0.125,-43.5 -0.125,-43.5 0,0 -0.5,-3.375 -1.75,0.25 0,1.75 0.125,13.75 0.125,13.75 l -1.25,1 0.125,-14.625 c 0,0 -0.75,-3.375 -1.875,0 -0.125,2.125 0,15.625 0,15.625 l -1.5,1.125 0.125,-17.125 c 0,0 -0.346,-0.977 -0.803,-0.901 0.216,0.036 0.456,0.304 0.697,1.026 -0.241,-0.723 -0.481,-0.991 -0.697,-1.026 -0.216,0.036 -0.456,0.304 -0.697,1.026 0.241,-0.723 0.481,-0.991 0.697,-1.026 -0.457,-0.075 -0.803,0.901 -0.803,0.901 l 0.125,17.125 -1.5,-1.125 c 0,0 0.125,-13.5 0,-15.625 -1.125,-3.375 -1.875,0 -1.875,0 l 0.125,14.625 -1.25,-1 c 0,0 0.125,-12 0.125,-13.75 -1.25,-3.625 -1.75,-0.25 -1.75,-0.25 0,0 0,40.125 -0.125,43.5 -0.25,3.75 2.125,6 3.25,6.5 2.875,1.375 2.75,5.375 2.75,5.375 0,0 0,5.875 -0.375,8 0.469,1.133 0.913,1.643 1.303,1.809 0.39,-0.166 0.834,-0.676 1.303,-1.809 -0.375,-2.125 -0.375,-8 -0.375,-8 0,0 -0.125,-4 2.75,-5.375 1.125,-0.5 3.5,-2.75 3.25,-6.5 z"
           id="path10791" />
        <path
           fill="none"
           stroke="#000000"
           stroke-width="0.6"
           d="m 142.917,31.542 -0.199,6.802 c -1.096,-1.009 -3.533,-3.262 -3.759,-3.552 -0.292,-0.375 -1.417,-1 -1.042,0.208 0.517,1.152 1.699,2.952 4.77,4.958 l -0.127,6.75 c -0.856,-0.332 -2.581,-1.313 -4.435,-4.167 -0.375,0.042 -0.666,0.25 -0.291,1.208 0.599,1.124 2.152,3.448 4.699,4.332 l -0.141,7.437 c -1.073,-0.423 -2.996,-1.382 -4.246,-3.164 -0.354,-0.604 -1.125,-1.083 -0.625,0.292 0.213,0.408 1.226,3.549 4.841,4.461 l -0.194,10.31"
           id="path10793" />
        <path
           fill="none"
           stroke="#000000"
           stroke-width="0.6"
           d="m 143.257,31.542 0.199,6.802 c 1.096,-1.009 3.533,-3.262 3.759,-3.552 0.292,-0.375 1.417,-1 1.042,0.208 -0.517,1.152 -1.699,2.952 -4.77,4.958 l 0.127,6.75 c 0.856,-0.332 2.581,-1.313 4.435,-4.167 0.375,0.042 0.666,0.25 0.291,1.208 -0.599,1.124 -2.152,3.448 -4.699,4.332 l 0.141,7.437 c 1.073,-0.423 2.996,-1.382 4.246,-3.164 0.354,-0.604 1.125,-1.083 0.625,0.292 -0.213,0.408 -1.226,3.549 -4.841,4.461 l 0.194,10.31"
           id="path10795" />
      </g>
      <g
         id="Rand">
        <path
           fill="none"
           stroke="#000000"
           stroke-width="2.5"
           d="M 87.75,188.247 C 4.58,187.805 1.25,106.583 1.25,106.583 L 1.917,1.25 h 171.668 l 0.666,105.333 c -0.001,0 -3.331,81.222 -86.501,81.664"
           id="path10798" />
      </g>
    </g>
  </g>
</svg>
