<svg width="270" height="66" viewBox="0 0 270 66" fill="none" xmlns="http://www.w3.org/2000/svg">
<g clip-path="url(#clip0_18_2)">
<path d="M79.2955 16V1.45455H82.3707V7.45597H88.6136V1.45455H91.6818V16H88.6136V9.99148H82.3707V16H79.2955ZM103.862 6.15625C103.763 5.81061 103.623 5.50521 103.443 5.24006C103.263 4.97017 103.043 4.7429 102.783 4.55824C102.527 4.36884 102.233 4.22443 101.902 4.125C101.575 4.02557 101.213 3.97585 100.815 3.97585C100.072 3.97585 99.4186 4.16051 98.8551 4.52983C98.2964 4.89915 97.8608 5.43655 97.5483 6.14205C97.2358 6.8428 97.0795 7.69981 97.0795 8.71307C97.0795 9.72633 97.2334 10.5881 97.5412 11.2983C97.849 12.0085 98.2846 12.5507 98.848 12.9247C99.4115 13.294 100.077 13.4787 100.844 13.4787C101.54 13.4787 102.134 13.3556 102.626 13.1094C103.124 12.8584 103.502 12.5057 103.763 12.0511C104.028 11.5966 104.161 11.0592 104.161 10.4389L104.786 10.5312H101.036V8.21591H107.122V10.0483C107.122 11.3267 106.852 12.4252 106.312 13.3438C105.773 14.2576 105.029 14.9631 104.082 15.4602C103.135 15.9527 102.051 16.1989 100.83 16.1989C99.4659 16.1989 98.268 15.8982 97.2358 15.2969C96.2036 14.6908 95.3987 13.8314 94.821 12.7188C94.2481 11.6013 93.9616 10.2756 93.9616 8.74148C93.9616 7.5625 94.1321 6.51136 94.473 5.58807C94.8187 4.66004 95.3016 3.87405 95.9219 3.23011C96.5421 2.58617 97.2642 2.09612 98.0881 1.75994C98.9119 1.42377 99.8045 1.25568 100.766 1.25568C101.589 1.25568 102.357 1.37642 103.067 1.6179C103.777 1.85464 104.407 2.19081 104.956 2.62642C105.51 3.06203 105.962 3.58049 106.312 4.18182C106.663 4.77841 106.888 5.43655 106.987 6.15625H103.862ZM114.061 16V1.45455H119.8C120.898 1.45455 121.836 1.65104 122.612 2.04403C123.393 2.43229 123.988 2.9839 124.395 3.69886C124.807 4.40909 125.013 5.24479 125.013 6.20597C125.013 7.17187 124.804 8.00284 124.388 8.69886C123.971 9.39015 123.367 9.92045 122.577 10.2898C121.791 10.6591 120.839 10.8438 119.722 10.8438H115.879V8.37216H119.224C119.812 8.37216 120.299 8.29167 120.688 8.13068C121.076 7.9697 121.365 7.72822 121.554 7.40625C121.748 7.08428 121.845 6.68419 121.845 6.20597C121.845 5.72301 121.748 5.31581 121.554 4.98438C121.365 4.65294 121.073 4.40199 120.68 4.23153C120.292 4.05634 119.802 3.96875 119.21 3.96875H117.136V16H114.061ZM121.916 9.38068L125.531 16H122.136L118.599 9.38068H121.916ZM127.186 16V1.45455H136.987V3.99006H130.261V7.45597H136.483V9.99148H130.261V13.4645H137.016V16H127.186ZM149.077 6.15625C148.978 5.81061 148.838 5.50521 148.658 5.24006C148.478 4.97017 148.258 4.7429 147.998 4.55824C147.742 4.36884 147.448 4.22443 147.117 4.125C146.79 4.02557 146.428 3.97585 146.03 3.97585C145.287 3.97585 144.633 4.16051 144.07 4.52983C143.511 4.89915 143.076 5.43655 142.763 6.14205C142.451 6.8428 142.294 7.69981 142.294 8.71307C142.294 9.72633 142.448 10.5881 142.756 11.2983C143.064 12.0085 143.499 12.5507 144.063 12.9247C144.626 13.294 145.292 13.4787 146.059 13.4787C146.755 13.4787 147.349 13.3556 147.841 13.1094C148.338 12.8584 148.717 12.5057 148.978 12.0511C149.243 11.5966 149.375 11.0592 149.375 10.4389L150 10.5312H146.25V8.21591H152.337V10.0483C152.337 11.3267 152.067 12.4252 151.527 13.3438C150.988 14.2576 150.244 14.9631 149.297 15.4602C148.35 15.9527 147.266 16.1989 146.044 16.1989C144.681 16.1989 143.483 15.8982 142.451 15.2969C141.418 14.6908 140.614 13.8314 140.036 12.7188C139.463 11.6013 139.176 10.2756 139.176 8.74148C139.176 7.5625 139.347 6.51136 139.688 5.58807C140.033 4.66004 140.516 3.87405 141.137 3.23011C141.757 2.58617 142.479 2.09612 143.303 1.75994C144.127 1.42377 145.019 1.25568 145.98 1.25568C146.804 1.25568 147.571 1.37642 148.282 1.6179C148.992 1.85464 149.622 2.19081 150.171 2.62642C150.725 3.06203 151.177 3.58049 151.527 4.18182C151.878 4.77841 152.103 5.43655 152.202 6.15625H149.077ZM157.722 1.45455V16H154.647V1.45455H157.722ZM173.619 8.72727C173.619 10.3134 173.318 11.6629 172.717 12.7756C172.12 13.8883 171.306 14.7382 170.274 15.3253C169.246 15.9077 168.091 16.1989 166.808 16.1989C165.515 16.1989 164.355 15.9053 163.328 15.3182C162.3 14.7311 161.488 13.8812 160.892 12.7685C160.295 11.6558 159.997 10.3087 159.997 8.72727C159.997 7.1411 160.295 5.79167 160.892 4.67898C161.488 3.56629 162.3 2.71875 163.328 2.13636C164.355 1.54924 165.515 1.25568 166.808 1.25568C168.091 1.25568 169.246 1.54924 170.274 2.13636C171.306 2.71875 172.12 3.56629 172.717 4.67898C173.318 5.79167 173.619 7.1411 173.619 8.72727ZM170.501 8.72727C170.501 7.69981 170.347 6.83333 170.039 6.12784C169.736 5.42235 169.308 4.88731 168.754 4.52273C168.2 4.15814 167.551 3.97585 166.808 3.97585C166.065 3.97585 165.416 4.15814 164.862 4.52273C164.308 4.88731 163.877 5.42235 163.569 6.12784C163.266 6.83333 163.115 7.69981 163.115 8.72727C163.115 9.75473 163.266 10.6212 163.569 11.3267C163.877 12.0322 164.308 12.5672 164.862 12.9318C165.416 13.2964 166.065 13.4787 166.808 13.4787C167.551 13.4787 168.2 13.2964 168.754 12.9318C169.308 12.5672 169.736 12.0322 170.039 11.3267C170.347 10.6212 170.501 9.75473 170.501 8.72727ZM188.063 1.45455V16H185.407L179.079 6.84517H178.972V16H175.897V1.45455H178.596L184.874 10.6023H185.002V1.45455H188.063ZM77.7365 60V33.8182H95.0717V38.3821H83.272V44.6207H93.9212V49.1847H83.272V60H77.7365ZM122.855 46.9091C122.855 49.7642 122.314 52.1932 121.231 54.196C120.157 56.1989 118.691 57.7287 116.833 58.7855C114.984 59.8338 112.904 60.358 110.595 60.358C108.268 60.358 106.18 59.8295 104.331 58.7727C102.481 57.7159 101.02 56.1861 99.9457 54.1832C98.8718 52.1804 98.3349 49.7557 98.3349 46.9091C98.3349 44.054 98.8718 41.625 99.9457 39.6222C101.02 37.6193 102.481 36.0937 104.331 35.0455C106.18 33.9886 108.268 33.4602 110.595 33.4602C112.904 33.4602 114.984 33.9886 116.833 35.0455C118.691 36.0937 120.157 37.6193 121.231 39.6222C122.314 41.625 122.855 44.054 122.855 46.9091ZM117.243 46.9091C117.243 45.0597 116.966 43.5 116.412 42.2301C115.866 40.9602 115.095 39.9972 114.098 39.3409C113.1 38.6847 111.933 38.3565 110.595 38.3565C109.257 38.3565 108.089 38.6847 107.092 39.3409C106.095 39.9972 105.319 40.9602 104.765 42.2301C104.22 43.5 103.947 45.0597 103.947 46.9091C103.947 48.7585 104.22 50.3182 104.765 51.5881C105.319 52.858 106.095 53.821 107.092 54.4773C108.089 55.1335 109.257 55.4616 110.595 55.4616C111.933 55.4616 113.1 55.1335 114.098 54.4773C115.095 53.821 115.866 52.858 116.412 51.5881C116.966 50.3182 117.243 48.7585 117.243 46.9091ZM106.696 31.1335C105.963 31.1335 105.332 30.8778 104.804 30.3665C104.275 29.8466 104.011 29.233 104.011 28.5256C104.011 27.8011 104.275 27.1875 104.804 26.6847C105.332 26.1818 105.963 25.9304 106.696 25.9304C107.437 25.9304 108.064 26.1818 108.575 26.6847C109.095 27.1875 109.355 27.8011 109.355 28.5256C109.355 29.233 109.095 29.8466 108.575 30.3665C108.064 30.8778 107.437 31.1335 106.696 31.1335ZM114.52 31.1335C113.787 31.1335 113.156 30.8778 112.627 30.3665C112.099 29.8466 111.835 29.233 111.835 28.5256C111.835 27.8011 112.099 27.1875 112.627 26.6847C113.156 26.1818 113.787 25.9304 114.52 25.9304C115.261 25.9304 115.887 26.1818 116.399 26.6847C116.919 27.1875 117.179 27.8011 117.179 28.5256C117.179 29.233 116.919 29.8466 116.399 30.3665C115.887 30.8778 115.261 31.1335 114.52 31.1335ZM126.955 60V33.8182H137.285C139.262 33.8182 140.95 34.1719 142.347 34.8793C143.754 35.5781 144.823 36.571 145.556 37.858C146.298 39.1364 146.668 40.6406 146.668 42.3707C146.668 44.1094 146.293 45.6051 145.543 46.858C144.793 48.1023 143.707 49.0568 142.283 49.7216C140.869 50.3864 139.156 50.7188 137.144 50.7188H130.228V46.2699H136.249C137.306 46.2699 138.184 46.125 138.883 45.8352C139.582 45.5455 140.102 45.1108 140.442 44.5312C140.792 43.9517 140.967 43.2315 140.967 42.3707C140.967 41.5014 140.792 40.7685 140.442 40.1719C140.102 39.5753 139.577 39.1236 138.87 38.8168C138.171 38.5014 137.289 38.3438 136.224 38.3438H132.491V60H126.955ZM141.094 48.0852L147.602 60H141.491L135.124 48.0852H141.094ZM159.862 60H150.58V33.8182H159.938C162.572 33.8182 164.839 34.3423 166.739 35.3906C168.64 36.4304 170.102 37.9261 171.124 39.8778C172.156 41.8295 172.671 44.1648 172.671 46.8835C172.671 49.6108 172.156 51.9545 171.124 53.9148C170.102 55.875 168.631 57.3793 166.714 58.4276C164.805 59.4759 162.521 60 159.862 60ZM156.116 55.2571H159.631C161.268 55.2571 162.644 54.9673 163.761 54.3878C164.886 53.7997 165.729 52.892 166.292 51.6648C166.863 50.429 167.148 48.8352 167.148 46.8835C167.148 44.9489 166.863 43.3679 166.292 42.1406C165.729 40.9134 164.89 40.0099 163.773 39.4304C162.657 38.8509 161.281 38.5611 159.644 38.5611H156.116V55.2571ZM176.772 60V33.8182H194.414V38.3821H182.307V44.6207H193.506V49.1847H182.307V55.4361H194.465V60H176.772Z" fill="white"/>
<g clip-path="url(#clip1_18_2)">
<path d="M31.5 64.9291C31.5 64.9291 21.154 59.7274 13.1173 48.1613C5.08064 36.5953 3.29472 27.3241 2.37097 21.7858C1.47801 16.217 1.04692 6.70096 1.04692 1.07092H31.5308H62.0147C62.0147 6.70096 61.5528 16.217 60.6598 21.7858C59.7669 27.3546 57.9502 36.5953 49.9135 48.1613C41.846 59.7274 31.5 64.9291 31.5 64.9291Z" fill="white"/>
<path d="M31.5 1.83591L26.7889 14.8095L22.1701 2.20308L17.2434 15.0849L12.4707 2.81504H2.92522V12.1169L15.0572 17.1961L2.77126 23.6523L15.7038 25.886L5.6349 33.4131L19.0293 33.8109L10.0073 42.8985L22.7551 41.2462L15.3959 50.9458L29.2522 47.3352L23.8021 57.0348L31.5 62.726L39.1979 57.0348L33.7478 47.3352L47.6041 50.9458L40.2449 41.2462L52.9927 42.8985L43.9707 33.8109L57.3651 33.4131L47.2962 25.886L60.2287 23.6523L47.9428 17.1961L60.0748 12.1169V2.81504H50.5293L45.7566 15.0849L40.8607 2.20308L36.2111 14.8401L31.5 1.83591ZM31.5 65.9388C31.5 65.9388 20.8152 60.5536 12.5323 48.6509C4.24927 36.7177 2.37097 27.1711 1.44721 21.4187C0.523461 15.6968 0.0615845 5.87485 0.0615845 0.0612183H31.5H62.9384C62.9384 5.87485 62.4765 15.6968 61.5528 21.4187C60.629 27.1405 58.7815 36.7177 50.4677 48.6509C42.1847 60.5536 31.5 65.9388 31.5 65.9388Z" fill="#EF0019"/>
<path d="M36.2419 26.7427V24.7232C37.1041 24.5397 38.0894 24.2337 38.8592 23.9889V20.8985H40.4604V23.3463C43.1393 22.0918 44.802 20.2559 44.802 18.2365H46.8651C46.8959 18.6648 46.8959 19.0014 46.8959 19.4298C46.8959 28.7316 40.1525 36.3811 31.5 36.4117C22.9399 36.3505 16.1041 28.7316 16.1041 19.4298C16.1041 19.0014 16.1041 18.6648 16.1349 18.2365H18.1979C18.1979 20.2559 19.8915 22.0612 22.5396 23.3463V20.8985H24.1408V23.9889C24.9106 24.2643 25.8959 24.5702 26.7581 24.7232V26.7427C25.5264 26.4673 24.2023 26.039 23.1554 25.58C23.1554 25.58 22.6935 25.3964 22.478 25.274C22.1085 25.0904 21.739 24.9068 21.4003 24.6926C18.629 23.1321 17.3974 21.5104 17.2742 21.3881C18.1672 29.1294 24.2023 35.1878 31.5 35.1878C38.9208 35.1878 44.8328 29.1294 45.7258 21.3881C45.6026 21.5104 44.371 23.1321 41.5997 24.6926C41.261 24.9068 40.8915 25.0904 40.522 25.274C40.3065 25.3964 40.0601 25.4882 39.8446 25.6106C39.8446 25.6412 37.4736 26.4979 36.2419 26.7427ZM40.3372 26.5285C41.7537 25.8554 43.324 24.8456 44.3094 23.8971C43.9707 24.8762 43.4164 26.4673 42.893 27.3241C42.154 27.8442 41.1994 28.4562 40.3372 28.8846V26.5285ZM32.1466 30.6899C34.4868 30.5981 37.0425 30.0779 39.044 29.3435V26.9875C37.0733 27.6912 34.5484 28.2114 32.1774 28.3032L32.1466 30.6899ZM36.2419 31.2406C37.9971 30.7817 39.9369 30.2921 41.3842 29.3741C40.0293 30.904 38.0894 32.4645 36.2419 33.2601V31.2406ZM34.9179 26.9569C33.871 27.1099 32.6393 27.1711 31.5308 27.1711C30.3915 27.1711 29.1598 27.0793 28.0821 26.9569V24.9068C29.129 25.0598 30.3915 25.121 31.5308 25.121C32.6701 25.121 33.871 25.0598 34.9179 24.9068V26.9569ZM22.6935 26.5285C21.2771 25.8554 19.7067 24.8456 18.7214 23.8971C19.0601 24.8762 19.6144 26.4673 20.1378 27.3241C20.8768 27.8442 21.8314 28.4562 22.6935 28.8846V26.5285ZM30.8842 30.6899C28.544 30.5981 25.9883 30.0779 23.9868 29.3435V26.9875C25.9575 27.6912 28.4824 28.2114 30.8534 28.3032L30.8842 30.6899ZM34.9487 31.516C33.871 31.6996 32.6085 31.7914 31.4692 31.7914C31.4692 31.7914 29.129 31.6996 28.0513 31.516V33.7191C29.0982 33.9944 30.3607 34.1474 31.5 34.1474C32.4853 34.1474 33.8402 33.9944 34.9179 33.7191L34.9487 31.516ZM26.7889 31.2406C25.0337 30.7817 23.0938 30.2921 21.6466 29.3741C23.0015 30.904 24.9413 32.4645 26.7889 33.2601V31.2406Z" fill="#262E2C"/>
</g>
<g clip-path="url(#clip2_18_2)">
<path d="M257.002 36.8895C252.246 36.8895 252.246 38.9793 247.489 38.9793C242.734 38.9793 242.734 36.8895 237.978 36.8895C233.222 36.8895 233.222 38.9793 228.466 38.9793C223.711 38.9793 223.711 36.8895 218.956 36.8895C214.261 36.8895 214.198 38.9253 209.621 38.9768C210.473 45.2715 215.107 65.4347 239.5 65.5646C264.365 65.4319 268.699 44.4857 269.425 38.6282C268.665 38.8375 267.751 38.9793 266.514 38.9793C261.758 38.9793 261.758 36.8895 257.002 36.8895Z" fill="#0047AB"/>
<path d="M228.466 34.4515C233.222 34.4515 233.222 32.3618 237.977 32.3618C242.734 32.3618 242.734 34.4515 247.489 34.4515C252.246 34.4515 252.246 32.3618 257.002 32.3618C261.758 32.3618 261.758 34.4515 266.514 34.4515C267.817 34.4515 268.762 34.2941 269.546 34.0666L269.334 0.435364H209.666L209.451 34.4515C214.2 34.4498 214.203 32.3618 218.955 32.3618C223.711 32.3618 223.711 34.4515 228.466 34.4515Z" fill="#ED1C24"/>
<path d="M233.367 46.6563L233.236 46.1774C233.236 46.1774 233.432 45.176 234.322 44.7407C234.866 44.6971 234.649 44.7187 234.67 44.8932C234.692 45.0677 234.822 44.2837 235.539 44.7842C235.8 44.6101 236.191 44.3269 236.386 44.7407C236.626 44.6536 237.017 44.3705 237.255 44.7407C237.581 44.5881 237.799 44.523 237.972 44.8497C238.385 44.6756 238.798 44.4359 238.972 44.8932C239.363 44.7842 239.841 44.8713 239.863 45.0458C240.145 45.0458 240.536 45.0458 240.623 45.2199C240.949 45.2854 241.166 45.3289 241.21 45.4596C241.427 45.5031 241.861 45.5466 241.905 45.7643C242.209 45.8514 242.535 45.9169 242.6 46.0691C242.926 46.1126 243.252 46.1345 243.404 46.3303C243.687 46.4174 244.078 46.5699 244.099 46.7005C244.382 46.7441 244.86 46.8095 244.512 47.1359C244.251 47.3755 243.925 47.6148 243.925 47.6148L243.491 48.0721L233.367 46.6563Z" fill="white" stroke="black" stroke-width="0.6"/>
<path d="M233.417 56.1472C233.417 56.1472 233.997 58.7301 235.575 59.2237C235.647 58.9625 235.72 58.4836 235.72 58.4836C235.72 58.4836 236.502 59.0784 237.241 59.0495C237.299 58.7012 237.313 57.6275 237.313 57.6275C237.313 57.6275 236.212 57.7577 235.3 56.2197C234.402 56.1761 233.417 56.1472 233.417 56.1472Z" fill="white" stroke="black" stroke-width="0.6"/>
<path d="M245.047 54.9282C245.047 54.9282 247.566 56.2346 249.406 55.5959C250.043 55.3782 251.202 54.87 249.869 54.3476C249.507 54.1734 249.16 53.9558 249.044 53.8398C248.928 53.7238 245.047 54.9282 245.047 54.9282Z" fill="white" stroke="black" stroke-width="0.6"/>
<path d="M221.267 50.4004C221.267 50.4004 231.911 43.1298 243.468 47.5705C245.945 48.3106 248.812 48.8331 250.072 49.0508C251.636 49.1378 253.114 49.1814 254.851 48.3977C255.894 48.0494 257.154 47.7447 257.632 47.7447C258.067 47.8753 259.153 47.8317 258.197 49.0508C257.719 49.7909 256.85 51.0099 258.023 52.5337C258.458 53.3609 258.718 54.0574 258.11 54.3187C257.545 54.4928 256.546 54.188 255.72 53.9704C254.895 53.4915 252.071 52.5772 250.767 53.2738C250.203 53.4479 237.994 57.9322 228.001 55.32C226.48 55.5812 223.048 55.1458 221.614 53.7962C221.614 53.7962 221.136 53.4479 221.354 53.1432C221.614 52.969 221.832 52.969 222.049 53.1867C222.309 53.4044 223.526 53.9704 222.614 52.6643C222.614 52.6643 221.354 51.75 221.093 51.5759C220.832 51.4017 220.528 51.097 220.832 50.8358C221.049 50.6616 221.267 50.6616 221.267 50.6616V50.4004Z" fill="white" stroke="black"/>
<path d="M226.205 55.3204C226.205 55.3204 228.551 54.2751 228.667 52.3306" stroke="black" stroke-width="0.6"/>
<path d="M227.885 55.2911C227.885 55.2911 229.797 54.1595 229.652 51.4891" stroke="black" stroke-width="0.6"/>
<path d="M221.267 50.6616C221.267 50.6616 222.324 51.5184 222.787 52.0987" stroke="black" stroke-width="0.6"/>
<path d="M223.251 53.1143C223.251 53.1143 223.946 53.8397 222.903 54.0721" stroke="black" stroke-width="0.6"/>
<path d="M225.423 51.0538C225.751 51.0538 226.017 50.8199 226.017 50.5313C226.017 50.2428 225.751 50.0089 225.423 50.0089C225.095 50.0089 224.829 50.2428 224.829 50.5313C224.829 50.8199 225.095 51.0538 225.423 51.0538Z" fill="black"/>
<path d="M224.25 50.4878C224.25 50.3189 224.291 50.1587 224.365 50.0159" stroke="black" stroke-width="0.6"/>
<path d="M224.365 50.0159C224.553 49.6512 224.953 49.3994 225.416 49.3994C226.06 49.3994 226.582 49.8863 226.582 50.4878C226.582 51.0893 226.06 51.5762 225.416 51.5762C225.129 51.5762 224.866 51.4798 224.663 51.3195" stroke="black" stroke-width="0.6"/>
<path d="M231.955 51.7354C231.955 51.7354 235.286 51.1987 236.908 52.2871C236.632 52.6932 234.779 54.1592 232.042 53.0126" stroke="black" stroke-width="0.6"/>
<path d="M234.605 53.419C234.605 53.419 233.722 53.0272 233.403 52.9691" stroke="black" stroke-width="0.6"/>
<path d="M235.633 53.1143C235.633 53.1143 234.446 52.635 233.244 52.4755" stroke="black" stroke-width="0.6"/>
<path d="M236.444 52.6789C236.444 52.6789 235.054 52.0552 232.679 52.113" stroke="black" stroke-width="0.6"/>
<path d="M228.45 47.4838C228.45 47.4838 229.927 47.7308 228.855 48.5722" stroke="black" stroke-width="0.6"/>
<path d="M229.551 49.2396C229.551 49.2396 230.695 49.6899 229.652 50.2266" stroke="black" stroke-width="0.6"/>
<path d="M229.753 47.1356C229.753 47.1356 231.042 47.4403 230.101 48.0934" stroke="black" stroke-width="0.6"/>
<path d="M230.478 48.6158C230.478 48.6158 232.23 48.8335 230.999 49.8202" stroke="black" stroke-width="0.6"/>
<path d="M231.317 50.1538C231.317 50.1538 233.012 50.1973 231.708 51.3004" stroke="black" stroke-width="0.6"/>
<path d="M230.941 46.9756C230.941 46.9756 232.288 47.3239 231.115 48.2093" stroke="black" stroke-width="0.6"/>
<path d="M232.215 48.4417C232.215 48.4417 233.838 49.0654 232.418 49.5879" stroke="black" stroke-width="0.6"/>
<path d="M232.708 50.1395C232.708 50.1395 234.576 50.4732 233.041 51.1844" stroke="black" stroke-width="0.6"/>
<path d="M232.49 46.6855C232.49 46.6855 233.693 47.1644 232.592 47.861" stroke="black" stroke-width="0.6"/>
<path d="M234.011 46.5549C234.011 46.5549 235.532 47.1648 233.91 47.8903" stroke="black" stroke-width="0.6"/>
<path d="M233.475 48.1658C233.475 48.1658 235.011 48.7171 233.91 49.4283" stroke="black" stroke-width="0.6"/>
<path d="M234.315 49.7766C234.315 49.7766 235.792 50.4439 234.59 50.9521" stroke="black" stroke-width="0.6"/>
<path d="M234.981 48.0645C234.981 48.0645 236.401 48.4413 235.213 49.1236" stroke="black" stroke-width="0.6"/>
<path d="M235.966 46.526C235.966 46.526 237.733 47.2807 236.068 47.6579" stroke="black" stroke-width="0.6"/>
<path d="M236.574 48.108C236.574 48.108 238.457 48.8192 236.676 49.1528" stroke="black" stroke-width="0.6"/>
<path d="M235.822 49.6753C235.822 49.6753 237.473 50.1249 236.198 50.8651" stroke="black" stroke-width="0.6"/>
<path d="M237.386 49.7042C237.386 49.7042 239.051 50.5167 237.501 50.9086" stroke="black" stroke-width="0.6"/>
<path d="M238.428 48.5433C238.428 48.5433 239.906 49.1525 238.674 49.646" stroke="black" stroke-width="0.6"/>
<path d="M237.921 46.7726C237.921 46.7726 239.283 47.4549 237.921 47.9627" stroke="black" stroke-width="0.6"/>
<path d="M239.558 46.8454C239.558 46.8454 241.035 47.7015 239.587 48.0498" stroke="black" stroke-width="0.6"/>
<path d="M239.225 50.1395C239.225 50.1395 240.166 50.5167 239.022 50.8796" stroke="black" stroke-width="0.6"/>
<path d="M240.354 50.1249C240.354 50.1249 241.513 50.3715 240.383 50.8215" stroke="black" stroke-width="0.6"/>
<path d="M239.833 48.5576C239.833 48.5576 241.382 49.0508 240.094 49.7331" stroke="black" stroke-width="0.6"/>
<path d="M241.354 47.3967C241.354 47.3967 242.266 47.9195 241.05 48.2385" stroke="black" stroke-width="0.6"/>
<path d="M241.209 48.8624C241.209 48.8624 242.802 49.5154 241.369 49.8202" stroke="black" stroke-width="0.6"/>
<path d="M241.629 50.2413C241.629 50.2413 242.787 50.6328 241.73 51.0392" stroke="black" stroke-width="0.6"/>
<path d="M242.541 47.5852C242.541 47.5852 243.714 48.3689 242.396 48.543" stroke="black" stroke-width="0.6"/>
<path d="M242.541 49.0219C242.541 49.0219 243.758 49.3701 242.672 49.9943" stroke="black" stroke-width="0.6"/>
<path d="M242.947 50.3137C242.947 50.3137 243.773 50.633 242.889 50.9232" stroke="black" stroke-width="0.6"/>
<path d="M244.033 48.0063C244.033 48.0063 244.902 48.6736 243.816 48.8189" stroke="black" stroke-width="0.6"/>
<path d="M243.903 49.2542C243.903 49.2542 245.076 49.8056 244.077 50.0814" stroke="black" stroke-width="0.6"/>
<path d="M244.134 50.4297C244.134 50.4297 244.815 50.8219 244.25 51.0974" stroke="black" stroke-width="0.6"/>
<path d="M245.192 48.2964C245.192 48.2964 246.075 48.746 245.206 49.0219" stroke="black" stroke-width="0.6"/>
<path d="M245.177 49.5878C245.177 49.5878 246.162 50.0086 245.264 50.415" stroke="black" stroke-width="0.6"/>
<path d="M245.481 50.778C245.481 50.778 245.727 51.0245 245.597 51.1552" stroke="black" stroke-width="0.6"/>
<path d="M246.455 48.6046C246.455 48.6046 247.324 49.1706 246.477 49.3883" stroke="black" stroke-width="0.6"/>
<path d="M246.325 49.8237C246.325 49.8237 247.422 50.3353 246.368 50.7923" stroke="black" stroke-width="0.6"/>
<path d="M247.683 49.0508C247.683 49.0508 248.617 49.7366 247.542 49.8017" stroke="black" stroke-width="0.6"/>
<path d="M247.52 50.2047C247.52 50.2047 248.421 50.6728 247.661 50.8685" stroke="black" stroke-width="0.6"/>
<path d="M248.877 49.399C248.877 49.399 249.833 49.8452 248.899 50.1064" stroke="black" stroke-width="0.6"/>
<path d="M248.964 50.531C248.964 50.531 249.899 50.8466 248.877 51.0534" stroke="black" stroke-width="0.6"/>
<path d="M249.985 49.4534C249.985 49.4534 250.594 50.0737 250.007 50.1827" stroke="black" stroke-width="0.6"/>
<path d="M250.203 50.4767C250.203 50.4767 250.778 50.6508 250.246 51.0211" stroke="black" stroke-width="0.6"/>
<path d="M250.898 49.5081C250.898 49.5081 251.506 49.7801 251.039 50.1611" stroke="black" stroke-width="0.6"/>
<path d="M251.256 50.4547C251.256 50.4547 251.528 50.6181 251.473 50.8573" stroke="black" stroke-width="0.6"/>
<path d="M251.962 49.584C251.962 49.584 252.603 49.8887 252.06 50.1827" stroke="black" stroke-width="0.6"/>
<path d="M234.67 44.8932C234.67 44.8932 234.402 45.1618 234.33 45.2924" stroke="black" stroke-width="0.6"/>
<path d="M235.539 44.7842C235.539 44.7842 235.242 44.9734 235.17 45.22" stroke="black" stroke-width="0.6"/>
<path d="M236.386 44.7407C236.386 44.7407 236.14 45.0315 236.039 45.2634" stroke="black" stroke-width="0.6"/>
<path d="M237.212 44.6829C237.212 44.6829 237.125 44.7703 236.98 45.0458" stroke="black" stroke-width="0.6"/>
<path d="M237.965 44.9152C237.965 44.9152 237.704 45.2199 237.646 45.3505" stroke="black" stroke-width="0.6"/>
<path d="M238.971 44.8932C238.971 44.8932 238.66 45.2199 238.515 45.307" stroke="black" stroke-width="0.6"/>
<path d="M239.862 45.0454C239.862 45.0454 239.399 45.4083 239.326 45.5971" stroke="black" stroke-width="0.6"/>
<path d="M240.557 45.2342C240.557 45.2342 240.195 45.4811 240.021 45.6406" stroke="black" stroke-width="0.6"/>
<path d="M241.281 45.4954C241.281 45.4954 240.948 45.6696 240.919 45.8872" stroke="black" stroke-width="0.6"/>
<path d="M241.904 45.764C241.904 45.764 241.615 45.9601 241.586 46.192" stroke="black" stroke-width="0.6"/>
<path d="M242.614 46.1196C242.614 46.1196 242.353 46.2213 242.309 46.3519" stroke="black" stroke-width="0.6"/>
<path d="M243.352 46.3373C243.352 46.3373 243.062 46.5114 243.033 46.5985" stroke="black" stroke-width="0.6"/>
<path d="M244.098 46.6998C244.098 46.6998 243.772 46.758 243.685 46.9032" stroke="black" stroke-width="0.6"/>
<path d="M258.486 48.543C258.486 48.543 256.792 48.1512 254.808 48.9637" stroke="black" stroke-width="0.6"/>
<path d="M258.037 49.2103C258.037 49.2103 256.502 49.0505 255.908 49.2974" stroke="black" stroke-width="0.6"/>
<path d="M257.69 49.8633C257.69 49.8633 256.705 49.7909 256.183 50.0085" stroke="black" stroke-width="0.6"/>
<path d="M257.386 50.6905C257.386 50.6905 256.488 50.6185 256.314 50.6327" stroke="black" stroke-width="0.6"/>
<path d="M257.429 51.4888L256.604 51.2711" stroke="black" stroke-width="0.6"/>
<path d="M257.69 52.0113C257.69 52.0113 257.067 52.0987 256.415 51.6776" stroke="black" stroke-width="0.6"/>
<path d="M258.139 52.8385C258.139 52.8385 257.357 52.7517 256.691 52.4177" stroke="black" stroke-width="0.6"/>
<path d="M258.342 53.3755C258.342 53.3755 257.241 53.317 256.111 52.9109" stroke="black" stroke-width="0.6"/>
<path d="M258.458 53.8397C258.458 53.8397 256.676 53.9993 255.054 53.1285" stroke="black" stroke-width="0.6"/>
<path d="M234.026 46.105L234.156 45.7856" stroke="black" stroke-width="0.6"/>
<path d="M234.75 46.105L234.88 45.7856" stroke="black" stroke-width="0.6"/>
<path d="M235.517 46.1046L235.648 45.7852" stroke="black" stroke-width="0.6"/>
<path d="M236.386 46.1485L236.517 45.8291" stroke="black" stroke-width="0.6"/>
<path d="M237.139 46.1046L237.27 45.7852" stroke="black" stroke-width="0.6"/>
<path d="M238.081 46.2209L238.211 45.9016" stroke="black" stroke-width="0.6"/>
<path d="M238.819 46.3222L238.95 46.0029" stroke="black" stroke-width="0.6"/>
<path d="M239.601 46.4093L239.732 46.09" stroke="black" stroke-width="0.6"/>
<path d="M240.543 46.5835L240.673 46.2641" stroke="black" stroke-width="0.6"/>
<path d="M241.166 46.7723L241.296 46.4529" stroke="black" stroke-width="0.6"/>
<path d="M241.948 46.9029L242.078 46.5835" stroke="black" stroke-width="0.6"/>
<path d="M242.643 47.1787L242.773 46.8593" stroke="black" stroke-width="0.6"/>
<path d="M243.381 47.4107L243.512 47.0913" stroke="black" stroke-width="0.6"/>
<path d="M235.72 58.4835C235.72 58.4835 234.171 57.7723 233.895 56.1761" stroke="black" stroke-width="0.6"/>
<path d="M237.328 58.1498C237.328 58.1498 236.155 57.6856 235.3 57.0325" stroke="black" stroke-width="0.6"/>
<path d="M237.255 58.5999C237.255 58.5999 235.387 57.9614 234.62 56.8584" stroke="black" stroke-width="0.6"/>
<path d="M235.648 58.89C235.648 58.89 235.155 58.6287 234.851 58.2805" stroke="black" stroke-width="0.6"/>
<path d="M249.449 54.2027C249.449 54.2027 248.305 54.4496 247.668 54.3333" stroke="black" stroke-width="0.6"/>
<path d="M250.043 54.3768C250.043 54.3768 248.261 55.4071 246.408 54.4928" stroke="black" stroke-width="0.6"/>
<path d="M250.478 54.7976C250.478 54.7976 248.493 55.7554 245.814 54.754" stroke="black" stroke-width="0.6"/>
<path d="M269.546 34.0666C268.762 34.2941 267.817 34.4515 266.514 34.4515C261.758 34.4515 261.758 32.3618 257.002 32.3618C252.246 32.3618 252.246 34.4515 247.489 34.4515C242.734 34.4515 242.734 32.3618 237.978 32.3618C233.222 32.3618 233.222 34.4515 228.466 34.4515C223.711 34.4515 223.711 32.3618 218.956 32.3618C214.203 32.3618 214.2 34.4498 209.452 34.4515L209.435 37.1218C209.435 37.1218 209.463 37.8118 209.621 38.9768C214.198 38.9253 214.261 36.8895 218.956 36.8895C223.711 36.8895 223.711 38.9793 228.466 38.9793C233.222 38.9793 233.222 36.8895 237.978 36.8895C242.734 36.8895 242.734 38.9793 247.489 38.9793C252.246 38.9793 252.246 36.8895 257.002 36.8895C261.758 36.8895 261.758 38.9793 266.514 38.9793C267.751 38.9793 268.664 38.8375 269.425 38.6282C269.543 37.676 269.566 37.1218 269.566 37.1218L269.546 34.0666Z" fill="white" stroke="black"/>
<path d="M211.926 37.3831C211.926 37.3831 210.035 37.7098 209.514 37.6878" stroke="black" stroke-width="0.6"/>
<path d="M213.772 37.5137C213.772 37.5137 211.1 38.1887 209.753 38.2322" stroke="black" stroke-width="0.6"/>
<path d="M215.271 33.748C215.271 33.748 219.572 32.4419 222.896 33.639" stroke="black" stroke-width="0.6"/>
<path d="M216.77 33.9221C216.77 33.9221 218.595 33.182 221.158 33.726" stroke="black" stroke-width="0.6"/>
<path d="M234.185 33.7768C234.185 33.7768 238.486 32.4708 241.81 33.6678" stroke="black" stroke-width="0.6"/>
<path d="M235.684 33.951C235.684 33.951 237.509 33.2109 240.072 33.7549" stroke="black" stroke-width="0.6"/>
<path d="M253.331 33.8639C253.331 33.8639 257.632 32.5579 260.956 33.7549" stroke="black" stroke-width="0.6"/>
<path d="M254.83 34.0381C254.83 34.0381 256.654 33.298 259.218 33.842" stroke="black" stroke-width="0.6"/>
<path d="M224.322 37.4409C224.322 37.4409 228.261 38.9207 232.114 37.6439" stroke="black" stroke-width="0.6"/>
<path d="M225.568 37.2086C225.568 37.2086 226.929 37.9926 230.26 37.499" stroke="black" stroke-width="0.6"/>
<path d="M243.569 37.5063C243.569 37.5063 247.509 38.9862 251.361 37.7094" stroke="black" stroke-width="0.6"/>
<path d="M244.815 37.274C244.815 37.274 246.177 38.058 249.507 37.5645" stroke="black" stroke-width="0.6"/>
<path d="M262.817 37.7606C262.817 37.7606 265.337 38.6021 269.363 38.1378" stroke="black" stroke-width="0.6"/>
<path d="M264.526 37.4412C264.526 37.4412 267.104 37.9347 269.421 37.4123" stroke="black" stroke-width="0.6"/>
<path d="M243.816 11L249.812 7.82188L249.768 4.51312L246.379 4.6002L243.468 10.0858L241.774 4.90495L240.123 10.1293L238.602 4.97774L237.082 10.1293L235.431 4.90495L233.736 10.0858L230.825 4.6002L227.436 4.51312L227.393 7.82188L233.389 11L228.522 12.219L233.475 14.004L228.957 16.0502L233.823 16.3985L230.608 20.0991L235.648 18.6189L233.215 22.6678L237.907 20.0991L236.386 26.5425L238.602 28.4755L240.818 26.5425L239.297 20.0991L243.99 22.6678L241.557 18.6189L246.597 20.0991L243.381 16.3985L248.248 16.0502L243.729 14.004L248.682 12.219L243.816 11Z" fill="white" stroke="black"/>
<path d="M217.356 26.7602C217.356 26.7602 217.748 24.1915 216.01 23.2773C215.358 22.6678 214.837 21.8406 215.749 21.8406C216.053 21.7535 217.313 21.6664 215.488 20.4039C214.576 20.0991 212.968 19.4461 212.621 18.0964C212.838 17.5305 213.186 17.2693 214.054 17.5305C214.402 17.4434 216.314 17.3999 213.837 15.4843C212.838 14.57 212.273 14.7877 212.23 12.4803C212.447 11.6966 212.925 11.2612 213.924 12.1755C214.532 12.3061 216.183 12.3497 214.315 10.6082C213.62 9.78101 213.186 9.91162 213.099 8.17017C213.272 7.56066 213.533 6.90762 214.532 7.73481C215.271 7.82188 216.053 7.64774 215.619 6.6464C215.401 5.86275 214.793 5.34031 216.357 4.64373C217.183 4.29544 217.443 3.773 217.748 3.6424C218.356 4.03422 218.834 4.33898 219.529 4.60019C220.007 4.90495 220.745 4.90495 220.007 6.77701C219.92 7.1253 219.399 8.82322 221.049 7.56066C221.049 7.56066 222.179 6.67531 222.324 8.03956C222.44 8.64907 222.266 10.2745 221.368 10.7099C220.963 10.9711 220.181 11.2616 220.325 11.9871C220.673 12.1901 220.876 12.4514 221.658 11.9C222.034 11.7548 222.759 11.2323 223.193 12.4806C223.193 13.119 223.569 14.4544 221.513 15.6441C221.224 15.9924 220.355 16.689 220.499 17.5597C220.818 17.7339 221.02 17.7628 221.513 17.4145C221.832 17.1533 222.845 16.689 222.845 17.9658C222.729 18.6624 222.498 19.1559 221.223 19.9685C220.325 20.2879 219.717 20.4909 219.572 20.9263C219.543 21.2457 219.167 22.0872 220.123 21.594C220.383 21.594 220.933 21.3909 220.847 22.0293C220.788 22.3195 220.586 22.697 219.949 22.9871C219.543 23.3354 218.066 24.0609 218.269 26.7313C218.24 27.1377 218.298 27.6602 217.921 27.6891C217.487 27.5438 217.342 27.1955 217.356 26.7602Z" fill="white" stroke="black"/>
<path d="M217.421 24.4092C217.421 24.4092 217.595 24.3657 217.574 23.6691C217.569 23.4953 217.57 22.3637 217.574 20.7508C217.574 20.6985 217.574 20.6473 217.574 20.5941C217.485 20.4753 217.356 20.3262 217.22 20.181C217.032 19.9807 216.839 19.7954 216.748 19.7397C216.552 19.6199 215.629 19.2281 215.434 19.141C215.238 19.0539 214.89 18.7164 214.641 18.5095C214.467 18.3354 214.63 18.3354 214.706 18.3135C214.75 18.4113 215.249 18.7924 215.597 18.9665C215.945 19.1406 216.77 19.5109 217.172 19.7174C217.293 19.7798 217.436 19.856 217.577 19.9323C217.579 19.2291 217.582 18.4604 217.585 17.6576C217.586 17.5803 217.586 17.5026 217.586 17.425C217.52 17.2522 217.441 17.0857 217.351 16.9276C216.692 15.7786 215.486 15.02 215.126 14.7292C214.706 14.468 214.576 14.0908 214.489 13.8874C214.402 13.7279 214.634 13.8292 214.721 14.0326C214.808 14.236 214.967 14.2938 215.474 14.7581C215.937 15.0629 216.691 15.7013 217.082 16.0207C217.22 16.1332 217.406 16.3366 217.59 16.5518C217.596 15.0681 217.603 13.5171 217.61 12.0717V12.0313C217.519 11.9147 217.435 11.8011 217.369 11.7064C217.327 11.6458 217.292 11.5918 217.27 11.5507C217.11 11.1589 216.618 10.8687 215.908 10.4041C215.546 10.114 215.097 9.62047 214.938 9.27218C214.865 8.93852 215.111 9.09803 215.184 9.25755C215.256 9.48986 215.488 9.62047 215.835 10.0412C216.183 10.3749 216.487 10.6072 216.922 10.7959C217.108 10.852 217.371 11.1084 217.612 11.3832C217.626 8.32727 217.638 5.9056 217.638 5.9056C217.638 5.9056 217.747 5.49183 217.834 5.88366C217.842 5.99163 217.86 8.24925 217.881 11.1226C218.044 10.9614 218.203 10.8336 218.327 10.7959C218.762 10.6072 219.066 10.3752 219.413 10.0412C219.761 9.62047 219.993 9.48986 220.065 9.25755C220.137 9.09803 220.384 8.93817 220.311 9.27218C220.152 9.62047 219.703 10.114 219.341 10.4041C218.631 10.8684 218.139 11.1589 217.979 11.5507C217.957 11.5901 217.924 11.6413 217.885 11.6991V11.7127C217.886 11.9349 217.888 12.1599 217.89 12.3873C217.898 13.6474 217.907 14.9761 217.916 16.2631C218.009 16.1648 218.095 16.0802 218.168 16.0207C218.559 15.7013 219.312 15.0629 219.775 14.7581C220.282 14.2938 220.442 14.2357 220.528 14.0326C220.615 13.8296 220.847 13.7279 220.76 13.8874C220.673 14.0904 220.543 14.468 220.123 14.7292C219.767 15.0169 218.583 15.7629 217.921 16.8914L217.921 16.9555C217.928 17.9578 217.934 18.9205 217.939 19.7895C217.987 19.7644 218.034 19.7397 218.077 19.7174C218.479 19.5105 219.305 19.1406 219.652 18.9665C220 18.7924 220.5 18.4113 220.543 18.3135C220.619 18.3354 220.782 18.3354 220.608 18.5095C220.359 18.7164 220.011 19.0539 219.816 19.141C219.62 19.2281 218.697 19.6199 218.501 19.7397C218.411 19.7954 218.217 19.9804 218.029 20.181L217.943 20.2743C217.956 22.2899 217.965 23.6907 217.965 23.6907C217.965 23.6907 217.943 24.1915 218.182 24.3438" stroke="black" stroke-width="0.6"/>
<path d="M261.144 19.9685C261.101 18.793 261.101 4.81787 261.101 4.81787C261.101 4.81787 260.927 3.64239 260.493 4.90495C260.493 5.51445 260.536 9.69394 260.536 9.69394L260.102 10.0422L260.145 4.94848C260.145 4.94848 259.884 3.773 259.493 4.94848C259.45 5.6886 259.493 10.3905 259.493 10.3905L258.972 10.7823L259.015 4.81787C259.015 4.81787 258.895 4.47759 258.736 4.50406C258.811 4.5166 258.895 4.60994 258.979 4.86141C258.895 4.6096 258.811 4.51625 258.736 4.50406C258.661 4.5166 258.578 4.60994 258.494 4.86141C258.578 4.6096 258.661 4.51625 258.736 4.50406C258.578 4.47794 258.457 4.81787 258.457 4.81787L258.501 10.7823L257.979 10.3905C257.979 10.3905 258.023 5.6886 257.979 4.94848C257.588 3.773 257.328 4.94848 257.328 4.94848L257.371 10.0422L256.937 9.69394C256.937 9.69394 256.98 5.51445 256.98 4.90495C256.546 3.64239 256.372 4.81787 256.372 4.81787C256.372 4.81787 256.372 18.793 256.328 19.9685C256.241 21.2746 257.067 22.0583 257.458 22.2324C258.457 22.7113 258.414 24.1045 258.414 24.1045C258.414 24.1045 258.414 26.1507 258.283 26.8908C258.446 27.2854 258.601 27.463 258.736 27.5208C258.872 27.463 259.026 27.2854 259.189 26.8908C259.059 26.1507 259.059 24.1045 259.059 24.1045C259.059 24.1045 259.015 22.7113 260.015 22.2324C260.406 22.0583 261.231 21.2746 261.144 19.9685Z" fill="white" stroke="black"/>
<path d="M258.675 10.9858L258.606 13.3549C258.225 13.0034 257.378 12.2187 257.299 12.1177C257.198 11.9871 256.807 11.7694 256.937 12.1902C257.117 12.5914 257.527 13.2183 258.595 13.917L258.551 16.268C258.253 16.1523 257.654 15.8106 257.009 14.8166C256.879 14.8313 256.778 14.9037 256.908 15.2374C257.116 15.6288 257.656 16.4383 258.541 16.7462L258.492 19.3364C258.119 19.1891 257.451 18.8551 257.017 18.2344C256.894 18.024 256.626 17.8572 256.799 18.3361C256.873 18.4782 257.225 19.5722 258.482 19.8898L258.415 23.4807" stroke="black" stroke-width="0.6"/>
<path d="M258.793 10.9858L258.862 13.3549C259.243 13.0034 260.09 12.2187 260.169 12.1177C260.27 11.9871 260.661 11.7694 260.531 12.1902C260.351 12.5914 259.94 13.2183 258.873 13.917L258.917 16.268C259.215 16.1523 259.814 15.8106 260.459 14.8166C260.589 14.8313 260.69 14.9037 260.56 15.2374C260.352 15.6288 259.812 16.4383 258.927 16.7462L258.976 19.3364C259.348 19.1891 260.017 18.8551 260.451 18.2344C260.574 18.024 260.842 17.8572 260.669 18.3361C260.595 18.4782 260.242 19.5722 258.986 19.8898L259.053 23.4807" stroke="black" stroke-width="0.6"/>
<path d="M239.5 65.5646C210.592 65.4107 209.434 37.1218 209.434 37.1218L209.666 0.435364H269.334L269.566 37.1218C269.566 37.1218 268.408 65.4107 239.5 65.5646Z" stroke="black" stroke-width="2.5"/>
</g>
</g>
<defs>
<clipPath id="clip0_18_2">
<rect width="270" height="66" fill="white"/>
</clipPath>
<clipPath id="clip1_18_2">
<rect width="63" height="66" fill="white"/>
</clipPath>
<clipPath id="clip2_18_2">
<rect width="61" height="66" fill="white" transform="translate(209)"/>
</clipPath>
</defs>
</svg>
